<?xml version="1.0" standalone="no"?>
<!DOCTYPE svg PUBLIC "-//W3C//DTD SVG 20010904//EN"
 "http://www.w3.org/TR/2001/REC-SVG-20010904/DTD/svg10.dtd">
<svg version="1.0" xmlns="http://www.w3.org/2000/svg"
 width="276.000000pt" height="278.000000pt" viewBox="0 0 276.000000 278.000000"
 preserveAspectRatio="xMidYMid meet">

<g transform="translate(0.000000,278.000000) scale(0.100000,-0.100000)"
fill="#000000" stroke="none">
<path d="M0 2400 l0 -380 1380 0 1380 0 0 380 0 380 -1380 0 -1380 0 0 -380z"/>
<path d="M0 1355 l0 -555 1380 0 1380 0 0 555 0 555 -1380 0 -1380 0 0 -555z
m1110 260 l0 -174 223 174 222 175 420 -1 420 0 -26 -22 c-28 -23 -284 -222
-383 -296 l-59 -45 49 -45 c210 -190 357 -322 399 -358 27 -23 47 -44 44 -47
-7 -8 -872 -8 -890 -1 -8 3 -104 100 -214 215 l-200 208 -5 -216 -5 -217 -310
0 -310 0 -3 413 -2 412 315 0 315 0 0 -175z"/>
<path d="M0 351 l0 -351 1380 0 1380 0 0 345 0 345 -1364 0 c-750 0 -1371 3
-1380 6 -14 6 -16 -29 -16 -345z"/>
</g>
</svg>
