<svg xmlns="http://www.w3.org/2000/svg" fill="currentColor" viewBox="160.82 258 676.98 461.88">
<line x1="5" y1="-5" x2="86.5385" y2="-5" transform="matrix(4.37114e-08 -1 -1 -4.37114e-08 313 474.205)" stroke="url(#paint0_linear_9_21)" stroke-width="10" stroke-miterlimit="5.75877" stroke-linecap="round"/>
<line x1="5" y1="-5" x2="60.3846" y2="-5" transform="matrix(4.37114e-08 -1 -1 -4.37114e-08 279 448.051)" stroke="url(#paint1_linear_9_21)" stroke-width="10" stroke-miterlimit="5.75877" stroke-linecap="round"/>
<line x1="5" y1="-5" x2="102.231" y2="-5" transform="matrix(3.42966e-08 -1 -1 -5.57106e-08 347 489.897)" stroke="url(#paint2_linear_9_21)" stroke-width="10" stroke-miterlimit="5.75877" stroke-linecap="round"/>
<line x1="5" y1="-5" x2="130.128" y2="-5" transform="matrix(3.44311e-08 -1 -1 -5.5493e-08 381 500.359)" stroke="url(#paint3_linear_9_21)" stroke-width="10" stroke-miterlimit="5.75877" stroke-linecap="round"/>
<line x1="5" y1="-5" x2="142.333" y2="-5" transform="matrix(3.42966e-08 -1 -1 -5.57106e-08 415 489.897)" stroke="url(#paint4_linear_9_21)" stroke-width="10" stroke-miterlimit="5.75877" stroke-linecap="round"/>
<line x1="5" y1="-5" x2="150.179" y2="-5" transform="matrix(3.42966e-08 -1 -1 -5.57106e-08 449 474.205)" stroke="url(#paint5_linear_9_21)" stroke-width="10" stroke-miterlimit="5.75877" stroke-linecap="round"/>
<line x1="5" y1="-5" x2="172.846" y2="-5" transform="matrix(3.42966e-08 -1 -1 -5.57106e-08 483 463.744)" stroke="url(#paint6_linear_9_21)" stroke-width="10" stroke-miterlimit="5.75877" stroke-linecap="round"/>
<line x1="5" y1="-5" x2="181.564" y2="-5" transform="matrix(3.42966e-08 -1 -1 -5.57106e-08 517 444.564)" stroke="url(#paint7_linear_9_21)" stroke-width="10" stroke-miterlimit="5.75877" stroke-linecap="round"/>
<line x1="5" y1="-5" x2="165" y2="-5" transform="matrix(3.42966e-08 -1 -1 -5.57106e-08 551 428)" stroke="url(#paint8_linear_9_21)" stroke-width="10" stroke-miterlimit="5.75877" stroke-linecap="round"/>
<line x1="5" y1="-5" x2="137.974" y2="-5" transform="matrix(3.42966e-08 -1 -1 -5.57106e-08 585 414.923)" stroke="url(#paint9_linear_9_21)" stroke-width="10" stroke-miterlimit="5.75877" stroke-linecap="round"/>
<line x1="5" y1="-5" x2="115.308" y2="-5" transform="matrix(3.42966e-08 -1 -1 -5.57106e-08 619 414.923)" stroke="url(#paint10_linear_9_21)" stroke-width="10" stroke-miterlimit="5.75877" stroke-linecap="round"/>
<line x1="5" y1="-5" x2="107.462" y2="-5" transform="matrix(3.42966e-08 -1 -1 -5.57106e-08 653 431.487)" stroke="url(#paint11_linear_9_21)" stroke-width="10" stroke-miterlimit="5.75877" stroke-linecap="round"/>
<line x1="5" y1="-5" x2="77.8205" y2="-5" transform="matrix(3.42966e-08 -1 -1 -5.57106e-08 687 448.051)" stroke="url(#paint12_linear_9_21)" stroke-width="10" stroke-miterlimit="5.75877" stroke-linecap="round"/>
<line x1="5" y1="-5" x2="60.3846" y2="-5" transform="matrix(3.42966e-08 -1 -1 -5.57106e-08 721 465.487)" stroke="url(#paint13_linear_9_21)" stroke-width="10" stroke-miterlimit="5.75877" stroke-linecap="round"/>
<path d="M162.42 719L177.22 663.88H192.5L207.3 719H199.54L195.94 705.8H173.7L170.1 719H162.42ZM175.22 699.24H194.5L186.82 670.28H182.9L175.22 699.24ZM226.002 719.8C222.536 719.8 219.869 719.107 218.002 717.72C216.189 716.28 214.936 714.093 214.242 711.16C213.549 708.227 213.202 704.44 213.202 699.8V678.92H220.642V699.72C220.642 703.027 220.802 705.667 221.122 707.64C221.442 709.613 222.136 711.027 223.202 711.88C224.322 712.733 225.976 713.16 228.162 713.16C230.296 713.16 232.242 712.867 234.002 712.28C235.816 711.693 237.282 711.133 238.402 710.6V678.92H245.762V719H238.402V716.28C236.696 717.24 234.856 718.067 232.882 718.76C230.962 719.453 228.669 719.8 226.002 719.8ZM256.571 719V678.92H264.011V684.12C264.971 683.427 266.198 682.68 267.691 681.88C269.184 681.08 270.811 680.333 272.571 679.64C274.384 678.893 276.171 678.36 277.931 678.04V685.48C276.224 685.8 274.464 686.253 272.651 686.84C270.891 687.427 269.238 688.067 267.691 688.76C266.198 689.4 264.971 689.987 264.011 690.52V719H256.571ZM299.678 719.8C295.198 719.8 291.678 719.053 289.118 717.56C286.558 716.013 284.745 713.667 283.678 710.52C282.612 707.373 282.078 703.373 282.078 698.52C282.078 693.88 282.638 690.067 283.758 687.08C284.932 684.093 286.798 681.853 289.358 680.36C291.972 678.867 295.412 678.12 299.678 678.12C303.998 678.12 307.438 678.867 309.998 680.36C312.558 681.853 314.398 684.093 315.518 687.08C316.692 690.067 317.278 693.88 317.278 698.52C317.278 703.373 316.745 707.373 315.678 710.52C314.665 713.667 312.878 716.013 310.318 717.56C307.758 719.053 304.212 719.8 299.678 719.8ZM299.678 713.48C302.505 713.48 304.638 712.973 306.078 711.96C307.518 710.947 308.478 709.347 308.958 707.16C309.438 704.92 309.678 702.04 309.678 698.52C309.678 695.053 309.385 692.307 308.798 690.28C308.212 688.2 307.198 686.707 305.758 685.8C304.318 684.893 302.292 684.44 299.678 684.44C297.118 684.44 295.092 684.893 293.598 685.8C292.158 686.707 291.145 688.2 290.558 690.28C289.972 692.307 289.678 695.053 289.678 698.52C289.678 702.04 289.918 704.92 290.398 707.16C290.878 709.347 291.812 710.947 293.198 711.96C294.638 712.973 296.798 713.48 299.678 713.48ZM326.415 719V678.92H333.855V684.12C334.815 683.427 336.041 682.68 337.535 681.88C339.028 681.08 340.655 680.333 342.415 679.64C344.228 678.893 346.015 678.36 347.775 678.04V685.48C346.068 685.8 344.308 686.253 342.495 686.84C340.735 687.427 339.081 688.067 337.535 688.76C336.041 689.4 334.815 689.987 333.855 690.52V719H326.415ZM363.505 719.8C359.719 719.8 356.839 718.76 354.865 716.68C352.892 714.6 351.905 711.533 351.905 707.48C351.905 704.76 352.385 702.573 353.345 700.92C354.305 699.213 355.719 697.933 357.585 697.08C359.505 696.227 361.879 695.72 364.705 695.56L376.305 694.44V691.32C376.305 688.813 375.745 687.053 374.625 686.04C373.505 684.973 371.825 684.44 369.585 684.44C368.199 684.44 366.572 684.493 364.705 684.6C362.839 684.707 360.999 684.84 359.185 685C357.372 685.16 355.745 685.32 354.305 685.48L353.985 680.04C355.319 679.72 356.892 679.427 358.705 679.16C360.572 678.893 362.519 678.653 364.545 678.44C366.572 678.227 368.439 678.12 370.145 678.12C373.292 678.12 375.879 678.573 377.905 679.48C379.932 680.387 381.425 681.8 382.385 683.72C383.345 685.64 383.825 688.12 383.825 691.16V710.84C383.932 711.907 384.359 712.707 385.105 713.24C385.905 713.72 386.892 714.04 388.065 714.2L387.825 719.72C387.079 719.72 386.332 719.693 385.585 719.64C384.839 719.64 384.145 719.587 383.505 719.48C382.865 719.373 382.252 719.24 381.665 719.08C380.812 718.867 380.039 718.573 379.345 718.2C378.705 717.773 378.092 717.293 377.505 716.76C376.545 717.187 375.292 717.64 373.745 718.12C372.199 718.6 370.545 719 368.785 719.32C367.025 719.64 365.265 719.8 363.505 719.8ZM365.025 713.88C366.359 713.88 367.719 713.747 369.105 713.48C370.545 713.213 371.905 712.92 373.185 712.6C374.465 712.227 375.505 711.907 376.305 711.64V699.64L365.665 700.68C363.425 700.84 361.825 701.48 360.865 702.6C359.905 703.667 359.425 705.213 359.425 707.24C359.425 709.32 359.879 710.947 360.785 712.12C361.745 713.293 363.159 713.88 365.025 713.88ZM431.95 719.8C427.79 719.8 424.35 719.213 421.63 718.04C418.964 716.867 416.884 715.107 415.39 712.76C413.897 710.36 412.857 707.4 412.27 703.88C411.684 700.307 411.39 696.2 411.39 691.56C411.39 686.813 411.684 682.653 412.27 679.08C412.857 675.507 413.897 672.547 415.39 670.2C416.937 667.8 419.044 666.013 421.71 664.84C424.377 663.613 427.817 663 432.03 663C433.897 663 435.79 663.107 437.71 663.32C439.63 663.48 441.417 663.72 443.07 664.04C444.777 664.307 446.244 664.573 447.47 664.84L447.15 671.16C446.03 670.947 444.617 670.76 442.91 670.6C441.257 670.387 439.55 670.2 437.79 670.04C436.084 669.88 434.51 669.8 433.07 669.8C430.19 669.8 427.844 670.227 426.03 671.08C424.217 671.933 422.804 673.24 421.79 675C420.83 676.76 420.164 679 419.79 681.72C419.47 684.44 419.31 687.72 419.31 691.56C419.31 695.293 419.47 698.52 419.79 701.24C420.164 703.96 420.83 706.2 421.79 707.96C422.75 709.667 424.137 710.947 425.95 711.8C427.817 712.6 430.217 713 433.15 713C435.39 713 437.817 712.867 440.43 712.6C443.097 712.333 445.364 712.04 447.23 711.72L447.47 718.12C446.19 718.387 444.67 718.653 442.91 718.92C441.204 719.187 439.39 719.4 437.47 719.56C435.604 719.72 433.764 719.8 431.95 719.8ZM469.807 719.8C465.7 719.8 462.447 719.053 460.047 717.56C457.7 716.013 455.993 713.72 454.927 710.68C453.86 707.64 453.327 703.827 453.327 699.24C453.327 694.227 454.02 690.173 455.407 687.08C456.847 683.987 458.847 681.72 461.407 680.28C463.967 678.84 467.033 678.12 470.607 678.12C476.1 678.12 480.233 679.613 483.007 682.6C485.833 685.533 487.247 690.28 487.247 696.84L486.847 701.88H460.927C460.98 705.72 461.7 708.627 463.087 710.6C464.473 712.52 466.98 713.48 470.607 713.48C472.153 713.48 473.833 713.453 475.647 713.4C477.513 713.293 479.353 713.187 481.167 713.08C482.98 712.973 484.527 712.867 485.807 712.76L485.967 718.36C484.633 718.573 483.033 718.787 481.167 719C479.3 719.267 477.353 719.453 475.327 719.56C473.353 719.72 471.513 719.8 469.807 719.8ZM460.927 696.36H479.807C479.807 691.827 479.06 688.653 477.567 686.84C476.127 685.027 473.807 684.12 470.607 684.12C468.527 684.12 466.767 684.52 465.327 685.32C463.887 686.12 462.793 687.427 462.047 689.24C461.3 691 460.927 693.373 460.927 696.36ZM495.868 719V678.92H503.308V681.72C504.161 681.187 505.254 680.653 506.588 680.12C507.921 679.587 509.334 679.133 510.828 678.76C512.321 678.333 513.761 678.12 515.148 678.12C517.921 678.12 520.188 678.493 521.948 679.24C523.761 679.933 525.174 681.08 526.188 682.68C527.201 684.227 527.921 686.253 528.348 688.76C528.774 691.267 528.988 694.307 528.988 697.88V719H521.468V698.28C521.468 694.973 521.281 692.333 520.908 690.36C520.534 688.387 519.788 686.973 518.668 686.12C517.548 685.213 515.868 684.76 513.628 684.76C512.401 684.76 511.121 684.893 509.788 685.16C508.508 685.427 507.281 685.773 506.108 686.2C504.988 686.627 504.054 687.027 503.308 687.4V719H495.868ZM552.433 719.88C549.606 719.88 547.339 719.453 545.633 718.6C543.979 717.747 542.779 716.28 542.033 714.2C541.339 712.067 540.993 709.08 540.993 705.24V685.24H535.553V678.92H540.993V667.16H548.353V678.92H560.273V685.24H548.353V703.16C548.353 705.773 548.459 707.827 548.673 709.32C548.939 710.76 549.446 711.773 550.193 712.36C550.939 712.947 552.113 713.24 553.713 713.24C554.246 713.24 554.913 713.24 555.713 713.24C556.513 713.187 557.339 713.133 558.193 713.08C559.046 712.973 559.793 712.893 560.433 712.84L560.833 718.92C560.033 719.08 559.099 719.213 558.033 719.32C557.019 719.48 556.006 719.613 554.993 719.72C553.979 719.827 553.126 719.88 552.433 719.88ZM567.196 719V678.92H574.636V684.12C575.596 683.427 576.823 682.68 578.316 681.88C579.809 681.08 581.436 680.333 583.196 679.64C585.009 678.893 586.796 678.36 588.556 678.04V685.48C586.849 685.8 585.089 686.253 583.276 686.84C581.516 687.427 579.863 688.067 578.316 688.76C576.823 689.4 575.596 689.987 574.636 690.52V719H567.196ZM604.287 719.8C600.5 719.8 597.62 718.76 595.647 716.68C593.673 714.6 592.687 711.533 592.687 707.48C592.687 704.76 593.167 702.573 594.127 700.92C595.087 699.213 596.5 697.933 598.367 697.08C600.287 696.227 602.66 695.72 605.487 695.56L617.087 694.44V691.32C617.087 688.813 616.527 687.053 615.407 686.04C614.287 684.973 612.607 684.44 610.367 684.44C608.98 684.44 607.353 684.493 605.487 684.6C603.62 684.707 601.78 684.84 599.967 685C598.153 685.16 596.527 685.32 595.087 685.48L594.767 680.04C596.1 679.72 597.673 679.427 599.487 679.16C601.353 678.893 603.3 678.653 605.327 678.44C607.353 678.227 609.22 678.12 610.927 678.12C614.073 678.12 616.66 678.573 618.687 679.48C620.713 680.387 622.207 681.8 623.167 683.72C624.127 685.64 624.607 688.12 624.607 691.16V710.84C624.713 711.907 625.14 712.707 625.887 713.24C626.687 713.72 627.673 714.04 628.847 714.2L628.607 719.72C627.86 719.72 627.113 719.693 626.367 719.64C625.62 719.64 624.927 719.587 624.287 719.48C623.647 719.373 623.033 719.24 622.447 719.08C621.593 718.867 620.82 718.573 620.127 718.2C619.487 717.773 618.873 717.293 618.287 716.76C617.327 717.187 616.073 717.64 614.527 718.12C612.98 718.6 611.327 719 609.567 719.32C607.807 719.64 606.047 719.8 604.287 719.8ZM605.807 713.88C607.14 713.88 608.5 713.747 609.887 713.48C611.327 713.213 612.687 712.92 613.967 712.6C615.247 712.227 616.287 711.907 617.087 711.64V699.64L606.447 700.68C604.207 700.84 602.607 701.48 601.647 702.6C600.687 703.667 600.207 705.213 600.207 707.24C600.207 709.32 600.66 710.947 601.567 712.12C602.527 713.293 603.94 713.88 605.807 713.88ZM636.192 719V661.88H643.552V719H636.192ZM673.154 719V663.88H693.794C697.421 663.88 700.461 664.36 702.914 665.32C705.421 666.28 707.314 667.8 708.594 669.88C709.927 671.907 710.594 674.573 710.594 677.88C710.594 680.227 710.327 682.2 709.794 683.8C709.261 685.4 708.487 686.76 707.474 687.88C706.514 688.947 705.287 689.853 703.794 690.6C705.394 691.187 706.834 691.987 708.114 693C709.394 693.96 710.381 695.293 711.074 697C711.821 698.707 712.194 700.867 712.194 703.48C712.194 706.413 711.767 708.893 710.914 710.92C710.114 712.893 708.941 714.467 707.394 715.64C705.847 716.813 703.981 717.667 701.794 718.2C699.661 718.733 697.287 719 694.674 719H673.154ZM680.834 712.68H694.274C696.407 712.68 698.221 712.413 699.714 711.88C701.261 711.293 702.461 710.333 703.314 709C704.167 707.613 704.594 705.667 704.594 703.16C704.594 701.187 704.221 699.613 703.474 698.44C702.781 697.213 701.874 696.307 700.754 695.72C699.687 695.08 698.541 694.653 697.314 694.44C696.141 694.227 695.021 694.12 693.954 694.12H680.834V712.68ZM680.834 687.88H693.874C696.061 687.88 697.821 687.56 699.154 686.92C700.487 686.227 701.447 685.213 702.034 683.88C702.674 682.493 702.994 680.76 702.994 678.68C702.994 675.747 702.194 673.613 700.594 672.28C699.047 670.893 696.647 670.2 693.394 670.2H680.834V687.88ZM730.615 719.8C726.828 719.8 723.948 718.76 721.975 716.68C720.001 714.6 719.015 711.533 719.015 707.48C719.015 704.76 719.495 702.573 720.455 700.92C721.415 699.213 722.828 697.933 724.695 697.08C726.615 696.227 728.988 695.72 731.815 695.56L743.415 694.44V691.32C743.415 688.813 742.855 687.053 741.735 686.04C740.615 684.973 738.935 684.44 736.695 684.44C735.308 684.44 733.681 684.493 731.815 684.6C729.948 684.707 728.108 684.84 726.295 685C724.481 685.16 722.855 685.32 721.415 685.48L721.095 680.04C722.428 679.72 724.001 679.427 725.815 679.16C727.681 678.893 729.628 678.653 731.655 678.44C733.681 678.227 735.548 678.12 737.255 678.12C740.401 678.12 742.988 678.573 745.015 679.48C747.041 680.387 748.535 681.8 749.495 683.72C750.455 685.64 750.935 688.12 750.935 691.16V710.84C751.041 711.907 751.468 712.707 752.215 713.24C753.015 713.72 754.001 714.04 755.175 714.2L754.935 719.72C754.188 719.72 753.441 719.693 752.695 719.64C751.948 719.64 751.255 719.587 750.615 719.48C749.975 719.373 749.361 719.24 748.775 719.08C747.921 718.867 747.148 718.573 746.455 718.2C745.815 717.773 745.201 717.293 744.615 716.76C743.655 717.187 742.401 717.64 740.855 718.12C739.308 718.6 737.655 719 735.895 719.32C734.135 719.64 732.375 719.8 730.615 719.8ZM732.135 713.88C733.468 713.88 734.828 713.747 736.215 713.48C737.655 713.213 739.015 712.92 740.295 712.6C741.575 712.227 742.615 711.907 743.415 711.64V699.64L732.775 700.68C730.535 700.84 728.935 701.48 727.975 702.6C727.015 703.667 726.535 705.213 726.535 707.24C726.535 709.32 726.988 710.947 727.895 712.12C728.855 713.293 730.268 713.88 732.135 713.88ZM762.04 719V678.92H769.48V681.72C770.333 681.187 771.426 680.653 772.76 680.12C774.093 679.587 775.506 679.133 777 678.76C778.493 678.333 779.933 678.12 781.32 678.12C784.093 678.12 786.36 678.493 788.12 679.24C789.933 679.933 791.346 681.08 792.36 682.68C793.373 684.227 794.093 686.253 794.52 688.76C794.946 691.267 795.16 694.307 795.16 697.88V719H787.64V698.28C787.64 694.973 787.453 692.333 787.08 690.36C786.706 688.387 785.96 686.973 784.84 686.12C783.72 685.213 782.04 684.76 779.8 684.76C778.573 684.76 777.293 684.893 775.96 685.16C774.68 685.427 773.453 685.773 772.28 686.2C771.16 686.627 770.226 687.027 769.48 687.4V719H762.04ZM805.399 719V661.88H812.839V695L818.599 694.76L828.999 678.92H837.239L825.079 697.56L837.799 719H829.559L818.759 701.32L812.839 701.56V719H805.399Z" fill="black"/>
<path d="M182.817 625.84C179.724 625.84 176.844 625.387 174.177 624.48C171.511 623.627 169.164 622.4 167.137 620.8C165.164 619.253 163.617 617.387 162.497 615.2C161.377 613.013 160.817 610.613 160.817 608C160.817 606.933 160.897 605.52 161.057 603.76C161.271 602 161.511 600.027 161.777 597.84C162.097 595.6 162.444 593.333 162.817 591.04L168.977 591.92C168.391 595.493 167.911 598.747 167.537 601.68C167.217 604.613 167.057 606.693 167.057 607.92C167.057 610.32 167.724 612.427 169.057 614.24C170.391 616.107 172.231 617.547 174.577 618.56C176.977 619.627 179.724 620.16 182.817 620.16H205.457C209.511 620.16 212.577 619.04 214.657 616.8C216.791 614.613 217.857 611.253 217.857 606.72C217.857 604.533 217.511 602.827 216.817 601.6C216.177 600.32 215.004 599.253 213.297 598.4C211.644 597.547 209.271 596.667 206.177 595.76C203.457 594.96 201.004 594.187 198.817 593.44C196.631 592.693 194.764 591.813 193.217 590.8C191.671 589.787 190.471 588.48 189.617 586.88C188.817 585.28 188.417 583.2 188.417 580.64C188.417 577.333 189.084 574.613 190.417 572.48C191.804 570.293 193.777 568.667 196.337 567.6C198.897 566.533 201.991 566 205.617 566C207.431 566 209.511 566.133 211.857 566.4C214.204 566.667 217.484 567.147 221.697 567.84L220.977 573.04C217.244 572.613 214.124 572.293 211.617 572.08C209.111 571.813 207.031 571.68 205.377 571.68C202.924 571.68 200.897 572 199.297 572.64C197.697 573.227 196.497 574.16 195.697 575.44C194.951 576.667 194.577 578.293 194.577 580.32C194.577 581.973 194.844 583.307 195.377 584.32C195.911 585.333 196.737 586.187 197.857 586.88C198.977 587.52 200.364 588.107 202.017 588.64C203.671 589.12 205.617 589.68 207.857 590.32C210.364 591.013 212.604 591.787 214.577 592.64C216.551 593.44 218.231 594.453 219.617 595.68C221.057 596.853 222.151 598.373 222.897 600.24C223.644 602.053 224.017 604.32 224.017 607.04C224.017 610.72 223.297 613.973 221.857 616.8C220.417 619.627 218.311 621.84 215.537 623.44C212.817 625.04 209.457 625.84 205.457 625.84H182.817ZM183.857 640.4V633.2H190.097V640.4H183.857ZM194.817 640.4V633.2H201.057V640.4H194.817ZM243.096 606V600.32H253.336V606H243.096ZM230.056 623.68C229.363 623.68 228.643 623.627 227.896 623.52C227.096 623.467 226.323 623.413 225.576 623.36L226.296 617.68C227.043 617.733 227.736 617.787 228.376 617.84C229.016 617.947 229.576 618 230.056 618C232.563 618 234.589 617.04 236.136 615.12C237.683 613.253 238.456 610.64 238.456 607.28V566H244.696V607.28C244.696 610.533 244.056 613.387 242.776 615.84C241.549 618.347 239.843 620.267 237.656 621.6C235.469 622.987 232.936 623.68 230.056 623.68ZM253.336 606V600.32C253.656 600.32 253.923 600.4 254.136 600.56C254.349 600.667 254.509 600.853 254.616 601.12C254.723 601.333 254.803 601.627 254.856 602C254.909 602.32 254.936 602.693 254.936 603.12C254.936 603.547 254.909 603.947 254.856 604.32C254.803 604.693 254.723 605.013 254.616 605.28C254.509 605.493 254.349 605.68 254.136 605.84C253.923 605.947 253.656 606 253.336 606ZM238.456 558.8V551.6H244.696V558.8H238.456ZM253.32 606V600.32H273.32V606H253.32ZM273.32 606V600.32C273.64 600.32 273.907 600.4 274.12 600.56C274.334 600.667 274.494 600.853 274.6 601.12C274.707 601.333 274.787 601.627 274.84 602C274.894 602.32 274.92 602.693 274.92 603.12C274.92 603.547 274.894 603.947 274.84 604.32C274.787 604.693 274.707 605.013 274.6 605.28C274.494 605.493 274.334 605.68 274.12 605.84C273.907 605.947 273.64 606 273.32 606ZM253.32 606C253 606 252.734 605.947 252.52 605.84C252.307 605.68 252.147 605.493 252.04 605.28C251.934 605.013 251.854 604.693 251.8 604.32C251.747 603.947 251.72 603.547 251.72 603.12C251.72 602.533 251.774 602.053 251.88 601.68C251.934 601.253 252.094 600.933 252.36 600.72C252.574 600.453 252.894 600.32 253.32 600.32V606ZM273.32 606V600.32H313.32L311.08 602.32V588.08C311.08 585.2 310.68 582.827 309.88 580.96C309.134 579.04 307.987 577.627 306.44 576.72C304.947 575.76 303.054 575.28 300.76 575.28H283.32L278.76 568.4L282.2 561.76C282.84 560.587 283.507 559.387 284.2 558.16C284.894 556.933 285.747 555.52 286.76 553.92C287.774 552.32 289.054 550.373 290.6 548.08L295.8 551.2C294.254 553.547 293 555.493 292.04 557.04C291.08 558.587 290.254 559.92 289.56 561.04C288.92 562.16 288.307 563.28 287.72 564.4L283.72 572.08L282.12 569.6H300.76C304.12 569.6 306.867 570.187 309 571.36C311.187 572.48 312.867 573.973 314.04 575.84C315.267 577.707 316.12 579.733 316.6 581.92C317.08 584.053 317.32 586.107 317.32 588.08V606H273.32ZM273.32 606C273 606 272.734 605.947 272.52 605.84C272.307 605.68 272.147 605.493 272.04 605.28C271.934 605.013 271.854 604.693 271.8 604.32C271.747 603.947 271.72 603.547 271.72 603.12C271.72 602.533 271.774 602.053 271.88 601.68C271.934 601.253 272.094 600.933 272.36 600.72C272.574 600.453 272.894 600.32 273.32 600.32V606ZM337.08 606V600.32H347.32V606H337.08ZM324.04 623.68C323.347 623.68 322.627 623.627 321.88 623.52C321.08 623.467 320.307 623.413 319.56 623.36L320.28 617.68C321.027 617.733 321.72 617.787 322.36 617.84C323 617.947 323.56 618 324.04 618C326.547 618 328.574 617.04 330.12 615.12C331.667 613.253 332.44 610.64 332.44 607.28V566H338.68V607.28C338.68 610.533 338.04 613.387 336.76 615.84C335.534 618.347 333.827 620.267 331.64 621.6C329.454 622.987 326.92 623.68 324.04 623.68ZM347.32 606V600.32C347.64 600.32 347.907 600.4 348.12 600.56C348.334 600.667 348.494 600.853 348.6 601.12C348.707 601.333 348.787 601.627 348.84 602C348.894 602.32 348.92 602.693 348.92 603.12C348.92 603.547 348.894 603.947 348.84 604.32C348.787 604.693 348.707 605.013 348.6 605.28C348.494 605.493 348.334 605.68 348.12 605.84C347.907 605.947 347.64 606 347.32 606ZM347.305 606V600.32H367.305V606H347.305ZM367.305 606V600.32C367.625 600.32 367.891 600.4 368.105 600.56C368.318 600.667 368.478 600.853 368.585 601.12C368.691 601.333 368.771 601.627 368.825 602C368.878 602.32 368.905 602.693 368.905 603.12C368.905 603.547 368.878 603.947 368.825 604.32C368.771 604.693 368.691 605.013 368.585 605.28C368.478 605.493 368.318 605.68 368.105 605.84C367.891 605.947 367.625 606 367.305 606ZM347.305 606C346.985 606 346.718 605.947 346.505 605.84C346.291 605.68 346.131 605.493 346.025 605.28C345.918 605.013 345.838 604.693 345.785 604.32C345.731 603.947 345.705 603.547 345.705 603.12C345.705 602.533 345.758 602.053 345.865 601.68C345.918 601.253 346.078 600.933 346.345 600.72C346.558 600.453 346.878 600.32 347.305 600.32V606ZM412.665 606V600.32H421.305V606H412.665ZM367.305 606C366.985 606 366.718 605.947 366.505 605.84C366.291 605.68 366.131 605.493 366.025 605.28C365.918 605.013 365.838 604.693 365.785 604.32C365.731 603.947 365.705 603.547 365.705 603.12C365.705 602.533 365.758 602.053 365.865 601.68C365.918 601.253 366.078 600.933 366.345 600.72C366.558 600.453 366.878 600.32 367.305 600.32V606ZM367.305 606V600.32H411.065L406.425 603.6V586.4C406.425 582.667 405.998 579.733 405.145 577.6C404.291 575.467 402.825 573.947 400.745 573.04C398.718 572.133 395.945 571.68 392.425 571.68C390.185 571.68 387.945 571.84 385.705 572.16C383.518 572.48 381.811 572.907 380.585 573.44L384.345 569.6C384.025 570.88 383.705 572.507 383.385 574.48C383.065 576.4 382.798 578.48 382.585 580.72C382.371 582.96 382.265 585.2 382.265 587.44C382.265 589.733 382.371 591.973 382.585 594.16C382.798 596.347 383.038 598.24 383.305 599.84C383.571 601.44 383.785 602.56 383.945 603.2L378.025 604.88C377.811 604.187 377.545 602.987 377.225 601.28C376.958 599.573 376.691 597.52 376.425 595.12C376.211 592.72 376.105 590.16 376.105 587.44C376.105 584.827 376.211 582.293 376.425 579.84C376.691 577.333 376.985 575.067 377.305 573.04C377.678 571.013 378.025 569.387 378.345 568.16C379.518 567.68 381.385 567.2 383.945 566.72C386.505 566.24 389.331 566 392.425 566C396.905 566 400.638 566.667 403.625 568C406.665 569.333 408.931 571.493 410.425 574.48C411.918 577.413 412.665 581.387 412.665 586.4V606H367.305ZM421.305 606V600.32C421.625 600.32 421.891 600.4 422.105 600.56C422.318 600.667 422.478 600.853 422.585 601.12C422.691 601.333 422.771 601.627 422.825 602C422.878 602.32 422.905 602.693 422.905 603.12C422.905 603.547 422.878 603.947 422.825 604.32C422.771 604.693 422.691 605.013 422.585 605.28C422.478 605.493 422.318 605.68 422.105 605.84C421.891 605.947 421.625 606 421.305 606ZM421.289 606V600.32H441.289V606H421.289ZM441.289 606V600.32C441.609 600.32 441.876 600.4 442.089 600.56C442.302 600.667 442.462 600.853 442.569 601.12C442.676 601.333 442.756 601.627 442.809 602C442.862 602.32 442.889 602.693 442.889 603.12C442.889 603.547 442.862 603.947 442.809 604.32C442.756 604.693 442.676 605.013 442.569 605.28C442.462 605.493 442.302 605.68 442.089 605.84C441.876 605.947 441.609 606 441.289 606ZM421.289 606C420.969 606 420.702 605.947 420.489 605.84C420.276 605.68 420.116 605.493 420.009 605.28C419.902 605.013 419.822 604.693 419.769 604.32C419.716 603.947 419.689 603.547 419.689 603.12C419.689 602.533 419.742 602.053 419.849 601.68C419.902 601.253 420.062 600.933 420.329 600.72C420.542 600.453 420.862 600.32 421.289 600.32V606ZM450.969 606V548.64H457.209V606H450.969ZM441.289 606V600.32H450.969V606H441.289ZM441.289 606C440.969 606 440.702 605.947 440.489 605.84C440.276 605.68 440.116 605.493 440.009 605.28C439.902 605.013 439.822 604.693 439.769 604.32C439.716 603.947 439.689 603.547 439.689 603.12C439.689 602.533 439.742 602.053 439.849 601.68C439.902 601.253 440.062 600.933 440.329 600.72C440.542 600.453 440.862 600.32 441.289 600.32V606ZM471 606V548.64H477.16V606H471ZM510.063 606V548.64H516.223V606H510.063ZM524.587 623.68C523.894 623.68 523.174 623.627 522.427 623.52C521.627 623.467 520.854 623.413 520.107 623.36L520.827 617.68C521.574 617.733 522.267 617.787 522.907 617.84C523.547 617.947 524.107 618 524.587 618C527.094 618 529.121 617.04 530.667 615.12C532.214 613.253 532.987 610.64 532.987 607.28V566H539.227V607.28C539.227 610.533 538.587 613.387 537.307 615.84C536.081 618.347 534.374 620.267 532.187 621.6C530.001 622.987 527.467 623.68 524.587 623.68ZM563.523 623.68C561.656 623.68 559.656 623.52 557.523 623.2C555.443 622.933 553.149 622.533 550.643 622L551.603 616.96C554.429 617.333 556.776 617.6 558.643 617.76C560.563 617.92 562.189 618 563.523 618C567.949 618 571.176 617.147 573.203 615.44C575.229 613.787 576.243 611.36 576.243 608.16V569.6L579.443 571.68H565.923C562.829 571.68 560.429 572.053 558.723 572.8C557.069 573.547 555.923 574.96 555.283 577.04C554.643 579.067 554.323 582.053 554.323 586C554.323 589.947 554.643 592.96 555.283 595.04C555.923 597.067 557.069 598.453 558.723 599.2C560.429 599.947 562.829 600.32 565.923 600.32H576.243V606H565.923C561.283 606 557.656 605.307 555.043 603.92C552.483 602.48 550.669 600.293 549.603 597.36C548.589 594.373 548.083 590.587 548.083 586C548.083 581.413 548.589 577.653 549.603 574.72C550.669 571.733 552.483 569.547 555.043 568.16C557.656 566.72 561.283 566 565.923 566H582.483V608.08C582.483 611.387 581.709 614.213 580.163 616.56C578.669 618.907 576.509 620.667 573.683 621.84C570.856 623.067 567.469 623.68 563.523 623.68ZM589.197 623.68C588.503 623.68 587.783 623.627 587.037 623.52C586.237 623.467 585.463 623.413 584.717 623.36L585.437 617.68C586.183 617.733 586.877 617.787 587.517 617.84C588.157 617.947 588.717 618 589.197 618C591.703 618 593.73 617.04 595.277 615.12C596.823 613.253 597.597 610.64 597.597 607.28V566H603.837V607.28C603.837 610.533 603.197 613.387 601.917 615.84C600.69 618.347 598.983 620.267 596.797 621.6C594.61 622.987 592.077 623.68 589.197 623.68ZM628.132 623.68C626.266 623.68 624.266 623.52 622.132 623.2C620.052 622.933 617.759 622.533 615.252 622L616.212 616.96C619.039 617.333 621.386 617.6 623.252 617.76C625.172 617.92 626.799 618 628.132 618C632.559 618 635.786 617.147 637.812 615.44C639.839 613.787 640.852 611.36 640.852 608.16V569.6L644.052 571.68H630.532C627.439 571.68 625.039 572.053 623.332 572.8C621.679 573.547 620.532 574.96 619.892 577.04C619.252 579.067 618.932 582.053 618.932 586C618.932 589.947 619.252 592.96 619.892 595.04C620.532 597.067 621.679 598.453 623.332 599.2C625.039 599.947 627.439 600.32 630.532 600.32H640.852V606H630.532C625.892 606 622.266 605.307 619.652 603.92C617.092 602.48 615.279 600.293 614.212 597.36C613.199 594.373 612.692 590.587 612.692 586C612.692 581.413 613.199 577.653 614.212 574.72C615.279 571.733 617.092 569.547 619.652 568.16C622.266 566.72 625.892 566 630.532 566H647.092V608.08C647.092 611.387 646.319 614.213 644.772 616.56C643.279 618.907 641.119 620.667 638.292 621.84C635.466 623.067 632.079 623.68 628.132 623.68ZM660.766 606V548.64H666.926V606H660.766ZM660.126 543.36C659.273 542.293 658.606 541.253 658.126 540.24C657.699 539.227 657.486 538.16 657.486 537.04C657.486 535.493 657.859 534.107 658.606 532.88C659.406 531.653 660.446 530.693 661.726 530C663.006 529.307 664.393 528.96 665.886 528.96C666.739 528.96 667.593 529.093 668.446 529.36C669.299 529.573 670.046 529.893 670.686 530.32L668.606 533.92C668.179 533.653 667.753 533.493 667.326 533.44C666.953 533.333 666.553 533.28 666.126 533.28C664.899 533.28 663.913 533.627 663.166 534.32C662.473 535.013 662.126 535.92 662.126 537.04C662.126 537.733 662.259 538.4 662.526 539.04C662.846 539.68 663.299 540.373 663.886 541.12L660.126 543.36ZM655.966 543.36V539.12H671.726V543.36H655.966ZM748.868 606V600.32H757.508V606H748.868ZM719.108 606C713.828 606 709.428 605.387 705.908 604.16C702.388 602.933 699.748 601.067 697.988 598.56C696.228 596.053 695.348 592.853 695.348 588.96C695.348 587.68 695.428 586.293 695.588 584.8C695.802 583.307 696.042 581.867 696.308 580.48C696.575 579.04 696.815 577.813 697.028 576.8C697.242 575.733 697.375 575.013 697.428 574.64L703.508 575.76C703.348 576.613 703.108 577.787 702.788 579.28C702.522 580.773 702.255 582.373 701.988 584.08C701.722 585.787 701.588 587.413 701.588 588.96C701.588 590.933 701.882 592.64 702.468 594.08C703.108 595.52 704.095 596.72 705.428 597.68C706.815 598.587 708.628 599.253 710.868 599.68C713.108 600.107 715.855 600.32 719.108 600.32H745.508L742.628 602.64V548.64H748.868V606H719.108ZM757.508 606V600.32C757.828 600.32 758.095 600.4 758.308 600.56C758.522 600.667 758.682 600.853 758.788 601.12C758.895 601.333 758.975 601.627 759.028 602C759.082 602.32 759.108 602.693 759.108 603.12C759.108 603.547 759.082 603.947 759.028 604.32C758.975 604.693 758.895 605.013 758.788 605.28C758.682 605.493 758.522 605.68 758.308 605.84C758.095 605.947 757.828 606 757.508 606ZM718.388 578.32C717.535 577.253 716.868 576.213 716.388 575.2C715.962 574.187 715.748 573.12 715.748 572C715.748 570.453 716.122 569.067 716.868 567.84C717.668 566.613 718.708 565.653 719.988 564.96C721.268 564.267 722.655 563.92 724.148 563.92C725.002 563.92 725.855 564.053 726.708 564.32C727.562 564.533 728.308 564.853 728.948 565.28L726.868 568.88C726.442 568.613 726.015 568.453 725.588 568.4C725.215 568.293 724.815 568.24 724.388 568.24C723.162 568.24 722.175 568.587 721.428 569.28C720.735 569.973 720.388 570.88 720.388 572C720.388 572.693 720.522 573.36 720.788 574C721.108 574.64 721.562 575.333 722.148 576.08L718.388 578.32ZM714.228 578.32V574.08H729.988V578.32H714.228ZM757.539 606V600.32H777.539V606H757.539ZM777.539 606V600.32C777.859 600.32 778.126 600.4 778.339 600.56C778.552 600.667 778.712 600.853 778.819 601.12C778.926 601.333 779.006 601.627 779.059 602C779.112 602.32 779.139 602.693 779.139 603.12C779.139 603.547 779.112 603.947 779.059 604.32C779.006 604.693 778.926 605.013 778.819 605.28C778.712 605.493 778.552 605.68 778.339 605.84C778.126 605.947 777.859 606 777.539 606ZM757.539 606C757.219 606 756.952 605.947 756.739 605.84C756.526 605.68 756.366 605.493 756.259 605.28C756.152 605.013 756.072 604.693 756.019 604.32C755.966 603.947 755.939 603.547 755.939 603.12C755.939 602.533 755.992 602.053 756.099 601.68C756.152 601.253 756.312 600.933 756.579 600.72C756.792 600.453 757.112 600.32 757.539 600.32V606ZM792.419 606V600.32H801.059V606H792.419ZM777.539 606C777.219 606 776.952 605.947 776.739 605.84C776.526 605.68 776.366 605.493 776.259 605.28C776.152 605.013 776.072 604.693 776.019 604.32C775.966 603.947 775.939 603.547 775.939 603.12C775.939 602.533 775.992 602.053 776.099 601.68C776.152 601.253 776.312 600.933 776.579 600.72C776.792 600.453 777.112 600.32 777.539 600.32V606ZM777.539 606V600.32H789.059L786.179 602.64V566H792.419V606H777.539ZM801.059 606V600.32C801.379 600.32 801.646 600.4 801.859 600.56C802.072 600.667 802.232 600.853 802.339 601.12C802.446 601.333 802.526 601.627 802.579 602C802.632 602.32 802.659 602.693 802.659 603.12C802.659 603.547 802.632 603.947 802.579 604.32C802.526 604.693 802.446 605.013 802.339 605.28C802.232 605.493 802.072 605.68 801.859 605.84C801.646 605.947 801.379 606 801.059 606ZM786.179 558.8V551.6H792.419V558.8H786.179ZM801.055 606V600.32H821.055V606H801.055ZM821.055 606V600.32C821.375 600.32 821.641 600.4 821.855 600.56C822.068 600.667 822.228 600.853 822.335 601.12C822.441 601.333 822.521 601.627 822.575 602C822.628 602.32 822.655 602.693 822.655 603.12C822.655 603.547 822.628 603.947 822.575 604.32C822.521 604.693 822.441 605.013 822.335 605.28C822.228 605.493 822.068 605.68 821.855 605.84C821.641 605.947 821.375 606 821.055 606ZM801.055 606C800.735 606 800.468 605.947 800.255 605.84C800.041 605.68 799.881 605.493 799.775 605.28C799.668 605.013 799.588 604.693 799.535 604.32C799.481 603.947 799.455 603.547 799.455 603.12C799.455 602.533 799.508 602.053 799.615 601.68C799.668 601.253 799.828 600.933 800.095 600.72C800.308 600.453 800.628 600.32 801.055 600.32V606ZM821.055 606V600.32H832.575L829.695 602.64V566H835.935V606H821.055ZM821.055 606C820.735 606 820.468 605.947 820.255 605.84C820.041 605.68 819.881 605.493 819.775 605.28C819.668 605.013 819.588 604.693 819.535 604.32C819.481 603.947 819.455 603.547 819.455 603.12C819.455 602.533 819.508 602.053 819.615 601.68C819.668 601.253 819.828 600.933 820.095 600.72C820.308 600.453 820.628 600.32 821.055 600.32V606ZM829.695 620.4V613.2H835.935V620.4H829.695Z" fill="black"/>
<defs>
<linearGradient id="paint0_linear_9_21" x1="0" y1="0.5" x2="91.5385" y2="0.5" gradientUnits="userSpaceOnUse">
<stop/>
<stop offset="0.764999" stop-color="currentColor" stop-opacity="0"/>
</linearGradient>
<linearGradient id="paint1_linear_9_21" x1="0" y1="0.5" x2="65.3846" y2="0.5" gradientUnits="userSpaceOnUse">
<stop/>
<stop offset="0.764999" stop-color="currentColor" stop-opacity="0"/>
</linearGradient>
<linearGradient id="paint2_linear_9_21" x1="0" y1="0.5" x2="107.231" y2="0.5" gradientUnits="userSpaceOnUse">
<stop/>
<stop offset="0.764999" stop-color="currentColor" stop-opacity="0"/>
</linearGradient>
<linearGradient id="paint3_linear_9_21" x1="0" y1="0.5" x2="135.128" y2="0.5" gradientUnits="userSpaceOnUse">
<stop/>
<stop offset="0.764999" stop-color="currentColor" stop-opacity="0"/>
</linearGradient>
<linearGradient id="paint4_linear_9_21" x1="0" y1="0.5" x2="147.333" y2="0.5" gradientUnits="userSpaceOnUse">
<stop/>
<stop offset="0.764999" stop-color="currentColor" stop-opacity="0"/>
</linearGradient>
<linearGradient id="paint5_linear_9_21" x1="0" y1="0.5" x2="155.179" y2="0.5" gradientUnits="userSpaceOnUse">
<stop/>
<stop offset="0.764999" stop-color="currentColor" stop-opacity="0"/>
</linearGradient>
<linearGradient id="paint6_linear_9_21" x1="0" y1="0.5" x2="177.846" y2="0.5" gradientUnits="userSpaceOnUse">
<stop/>
<stop offset="0.764999" stop-color="currentColor" stop-opacity="0"/>
</linearGradient>
<linearGradient id="paint7_linear_9_21" x1="0" y1="0.5" x2="186.564" y2="0.5" gradientUnits="userSpaceOnUse">
<stop/>
<stop offset="0.764999" stop-color="currentColor" stop-opacity="0"/>
</linearGradient>
<linearGradient id="paint8_linear_9_21" x1="0" y1="0.5" x2="170" y2="0.5" gradientUnits="userSpaceOnUse">
<stop/>
<stop offset="0.764999" stop-color="currentColor" stop-opacity="0"/>
</linearGradient>
<linearGradient id="paint9_linear_9_21" x1="0" y1="0.5" x2="142.974" y2="0.5" gradientUnits="userSpaceOnUse">
<stop/>
<stop offset="0.764999" stop-color="currentColor" stop-opacity="0"/>
</linearGradient>
<linearGradient id="paint10_linear_9_21" x1="0" y1="0.5" x2="120.308" y2="0.5" gradientUnits="userSpaceOnUse">
<stop/>
<stop offset="0.764999" stop-color="currentColor" stop-opacity="0"/>
</linearGradient>
<linearGradient id="paint11_linear_9_21" x1="0" y1="0.5" x2="112.462" y2="0.5" gradientUnits="userSpaceOnUse">
<stop/>
<stop offset="0.764999" stop-color="currentColor" stop-opacity="0"/>
</linearGradient>
<linearGradient id="paint12_linear_9_21" x1="0" y1="0.5" x2="82.8205" y2="0.5" gradientUnits="userSpaceOnUse">
<stop/>
<stop offset="0.764999" stop-color="currentColor" stop-opacity="0"/>
</linearGradient>
<linearGradient id="paint13_linear_9_21" x1="0" y1="0.5" x2="65.3846" y2="0.5" gradientUnits="userSpaceOnUse">
<stop/>
<stop offset="0.764999" stop-color="currentColor" stop-opacity="0"/>
</linearGradient>
</defs>
</svg>