<svg xmlns="http://www.w3.org/2000/svg" fill="none" viewBox="167.26 222 665.69 478.44"><line x1="5" y1="-5" x2="86.5385" y2="-5" transform="matrix(4.37114e-08 -1 -1 -4.37114e-08 313 438.205)" stroke="url(#paint0_linear_28_2)" stroke-width="10" stroke-miterlimit="5.75877" stroke-linecap="round"></line><line x1="5" y1="-5" x2="60.3846" y2="-5" transform="matrix(4.37114e-08 -1 -1 -4.37114e-08 279 412.051)" stroke="url(#paint1_linear_28_2)" stroke-width="10" stroke-miterlimit="5.75877" stroke-linecap="round"></line><line x1="5" y1="-5" x2="102.231" y2="-5" transform="matrix(3.42966e-08 -1 -1 -5.57106e-08 347 453.897)" stroke="url(#paint2_linear_28_2)" stroke-width="10" stroke-miterlimit="5.75877" stroke-linecap="round"></line><line x1="5" y1="-5" x2="130.128" y2="-5" transform="matrix(3.44311e-08 -1 -1 -5.5493e-08 381 464.359)" stroke="url(#paint3_linear_28_2)" stroke-width="10" stroke-miterlimit="5.75877" stroke-linecap="round"></line><line x1="5" y1="-5" x2="142.333" y2="-5" transform="matrix(3.42966e-08 -1 -1 -5.57106e-08 415 453.897)" stroke="url(#paint4_linear_28_2)" stroke-width="10" stroke-miterlimit="5.75877" stroke-linecap="round"></line><line x1="5" y1="-5" x2="150.179" y2="-5" transform="matrix(3.42966e-08 -1 -1 -5.57106e-08 449 438.205)" stroke="url(#paint5_linear_28_2)" stroke-width="10" stroke-miterlimit="5.75877" stroke-linecap="round"></line><line x1="5" y1="-5" x2="172.846" y2="-5" transform="matrix(3.42966e-08 -1 -1 -5.57106e-08 483 427.744)" stroke="url(#paint6_linear_28_2)" stroke-width="10" stroke-miterlimit="5.75877" stroke-linecap="round"></line><line x1="5" y1="-5" x2="181.564" y2="-5" transform="matrix(3.42966e-08 -1 -1 -5.57106e-08 517 408.564)" stroke="url(#paint7_linear_28_2)" stroke-width="10" stroke-miterlimit="5.75877" stroke-linecap="round"></line><line x1="5" y1="-5" x2="165" y2="-5" transform="matrix(3.42966e-08 -1 -1 -5.57106e-08 551 392)" stroke="url(#paint8_linear_28_2)" stroke-width="10" stroke-miterlimit="5.75877" stroke-linecap="round"></line><line x1="5" y1="-5" x2="137.974" y2="-5" transform="matrix(3.42966e-08 -1 -1 -5.57106e-08 585 378.923)" stroke="url(#paint9_linear_28_2)" stroke-width="10" stroke-miterlimit="5.75877" stroke-linecap="round"></line><line x1="5" y1="-5" x2="115.308" y2="-5" transform="matrix(3.42966e-08 -1 -1 -5.57106e-08 619 378.923)" stroke="url(#paint10_linear_28_2)" stroke-width="10" stroke-miterlimit="5.75877" stroke-linecap="round"></line><line x1="5" y1="-5" x2="107.462" y2="-5" transform="matrix(3.42966e-08 -1 -1 -5.57106e-08 653 395.487)" stroke="url(#paint11_linear_28_2)" stroke-width="10" stroke-miterlimit="5.75877" stroke-linecap="round"></line><line x1="5" y1="-5" x2="77.8205" y2="-5" transform="matrix(3.42966e-08 -1 -1 -5.57106e-08 687 412.051)" stroke="url(#paint12_linear_28_2)" stroke-width="10" stroke-miterlimit="5.75877" stroke-linecap="round"></line><line x1="5" y1="-5" x2="60.3846" y2="-5" transform="matrix(3.42966e-08 -1 -1 -5.57106e-08 721 429.487)" stroke="url(#paint13_linear_28_2)" stroke-width="10" stroke-miterlimit="5.75877" stroke-linecap="round"></line><path d="M167.264 683L182.064 627.88H197.344L212.144 683H204.384L200.784 669.8H178.544L174.944 683H167.264ZM180.064 663.24H199.344L191.664 634.28H187.744L180.064 663.24ZM230.846 683.8C227.379 683.8 224.713 683.107 222.846 681.72C221.033 680.28 219.779 678.093 219.086 675.16C218.393 672.227 218.046 668.44 218.046 663.8V642.92H225.486V663.72C225.486 667.027 225.646 669.667 225.966 671.64C226.286 673.613 226.979 675.027 228.046 675.88C229.166 676.733 230.819 677.16 233.006 677.16C235.139 677.16 237.086 676.867 238.846 676.28C240.659 675.693 242.126 675.133 243.246 674.6V642.92H250.606V683H243.246V680.28C241.539 681.24 239.699 682.067 237.726 682.76C235.806 683.453 233.513 683.8 230.846 683.8ZM261.415 683V642.92H268.855V648.12C269.815 647.427 271.041 646.68 272.535 645.88C274.028 645.08 275.655 644.333 277.415 643.64C279.228 642.893 281.015 642.36 282.775 642.04V649.48C281.068 649.8 279.308 650.253 277.495 650.84C275.735 651.427 274.081 652.067 272.535 652.76C271.041 653.4 269.815 653.987 268.855 654.52V683H261.415ZM304.522 683.8C300.042 683.8 296.522 683.053 293.962 681.56C291.402 680.013 289.589 677.667 288.522 674.52C287.456 671.373 286.922 667.373 286.922 662.52C286.922 657.88 287.482 654.067 288.602 651.08C289.776 648.093 291.642 645.853 294.202 644.36C296.816 642.867 300.256 642.12 304.522 642.12C308.842 642.12 312.282 642.867 314.842 644.36C317.402 645.853 319.242 648.093 320.362 651.08C321.536 654.067 322.122 657.88 322.122 662.52C322.122 667.373 321.589 671.373 320.522 674.52C319.509 677.667 317.722 680.013 315.162 681.56C312.602 683.053 309.056 683.8 304.522 683.8ZM304.522 677.48C307.349 677.48 309.482 676.973 310.922 675.96C312.362 674.947 313.322 673.347 313.802 671.16C314.282 668.92 314.522 666.04 314.522 662.52C314.522 659.053 314.229 656.307 313.642 654.28C313.056 652.2 312.042 650.707 310.602 649.8C309.162 648.893 307.136 648.44 304.522 648.44C301.962 648.44 299.936 648.893 298.442 649.8C297.002 650.707 295.989 652.2 295.402 654.28C294.816 656.307 294.522 659.053 294.522 662.52C294.522 666.04 294.762 668.92 295.242 671.16C295.722 673.347 296.656 674.947 298.042 675.96C299.482 676.973 301.642 677.48 304.522 677.48ZM331.258 683V642.92H338.698V648.12C339.658 647.427 340.885 646.68 342.378 645.88C343.872 645.08 345.498 644.333 347.258 643.64C349.072 642.893 350.858 642.36 352.618 642.04V649.48C350.912 649.8 349.152 650.253 347.338 650.84C345.578 651.427 343.925 652.067 342.378 652.76C340.885 653.4 339.658 653.987 338.698 654.52V683H331.258ZM368.349 683.8C364.562 683.8 361.682 682.76 359.709 680.68C357.736 678.6 356.749 675.533 356.749 671.48C356.749 668.76 357.229 666.573 358.189 664.92C359.149 663.213 360.562 661.933 362.429 661.08C364.349 660.227 366.722 659.72 369.549 659.56L381.149 658.44V655.32C381.149 652.813 380.589 651.053 379.469 650.04C378.349 648.973 376.669 648.44 374.429 648.44C373.042 648.44 371.416 648.493 369.549 648.6C367.682 648.707 365.842 648.84 364.029 649C362.216 649.16 360.589 649.32 359.149 649.48L358.829 644.04C360.162 643.72 361.736 643.427 363.549 643.16C365.416 642.893 367.362 642.653 369.389 642.44C371.416 642.227 373.282 642.12 374.989 642.12C378.136 642.12 380.722 642.573 382.749 643.48C384.776 644.387 386.269 645.8 387.229 647.72C388.189 649.64 388.669 652.12 388.669 655.16V674.84C388.776 675.907 389.202 676.707 389.949 677.24C390.749 677.72 391.736 678.04 392.909 678.2L392.669 683.72C391.922 683.72 391.176 683.693 390.429 683.64C389.682 683.64 388.989 683.587 388.349 683.48C387.709 683.373 387.096 683.24 386.509 683.08C385.656 682.867 384.882 682.573 384.189 682.2C383.549 681.773 382.936 681.293 382.349 680.76C381.389 681.187 380.136 681.64 378.589 682.12C377.042 682.6 375.389 683 373.629 683.32C371.869 683.64 370.109 683.8 368.349 683.8ZM369.869 677.88C371.202 677.88 372.562 677.747 373.949 677.48C375.389 677.213 376.749 676.92 378.029 676.6C379.309 676.227 380.349 675.907 381.149 675.64V663.64L370.509 664.68C368.269 664.84 366.669 665.48 365.709 666.6C364.749 667.667 364.269 669.213 364.269 671.24C364.269 673.32 364.722 674.947 365.629 676.12C366.589 677.293 368.002 677.88 369.869 677.88ZM436.794 683.8C432.634 683.8 429.194 683.213 426.474 682.04C423.807 680.867 421.727 679.107 420.234 676.76C418.741 674.36 417.701 671.4 417.114 667.88C416.527 664.307 416.234 660.2 416.234 655.56C416.234 650.813 416.527 646.653 417.114 643.08C417.701 639.507 418.741 636.547 420.234 634.2C421.781 631.8 423.887 630.013 426.554 628.84C429.221 627.613 432.661 627 436.874 627C438.741 627 440.634 627.107 442.554 627.32C444.474 627.48 446.261 627.72 447.914 628.04C449.621 628.307 451.087 628.573 452.314 628.84L451.994 635.16C450.874 634.947 449.461 634.76 447.754 634.6C446.101 634.387 444.394 634.2 442.634 634.04C440.927 633.88 439.354 633.8 437.914 633.8C435.034 633.8 432.687 634.227 430.874 635.08C429.061 635.933 427.647 637.24 426.634 639C425.674 640.76 425.007 643 424.634 645.72C424.314 648.44 424.154 651.72 424.154 655.56C424.154 659.293 424.314 662.52 424.634 665.24C425.007 667.96 425.674 670.2 426.634 671.96C427.594 673.667 428.981 674.947 430.794 675.8C432.661 676.6 435.061 677 437.994 677C440.234 677 442.661 676.867 445.274 676.6C447.941 676.333 450.207 676.04 452.074 675.72L452.314 682.12C451.034 682.387 449.514 682.653 447.754 682.92C446.047 683.187 444.234 683.4 442.314 683.56C440.447 683.72 438.607 683.8 436.794 683.8ZM469.912 683.8C466.125 683.8 463.245 682.76 461.272 680.68C459.298 678.6 458.312 675.533 458.312 671.48C458.312 668.76 458.792 666.573 459.752 664.92C460.712 663.213 462.125 661.933 463.992 661.08C465.912 660.227 468.285 659.72 471.112 659.56L482.712 658.44V655.32C482.712 652.813 482.152 651.053 481.032 650.04C479.912 648.973 478.232 648.44 475.992 648.44C474.605 648.44 472.978 648.493 471.112 648.6C469.245 648.707 467.405 648.84 465.592 649C463.778 649.16 462.152 649.32 460.712 649.48L460.392 644.04C461.725 643.72 463.298 643.427 465.112 643.16C466.978 642.893 468.925 642.653 470.952 642.44C472.978 642.227 474.845 642.12 476.552 642.12C479.698 642.12 482.285 642.573 484.312 643.48C486.338 644.387 487.832 645.8 488.792 647.72C489.752 649.64 490.232 652.12 490.232 655.16V674.84C490.338 675.907 490.765 676.707 491.512 677.24C492.312 677.72 493.298 678.04 494.472 678.2L494.232 683.72C493.485 683.72 492.738 683.693 491.992 683.64C491.245 683.64 490.552 683.587 489.912 683.48C489.272 683.373 488.658 683.24 488.072 683.08C487.218 682.867 486.445 682.573 485.752 682.2C485.112 681.773 484.498 681.293 483.912 680.76C482.952 681.187 481.698 681.64 480.152 682.12C478.605 682.6 476.952 683 475.192 683.32C473.432 683.64 471.672 683.8 469.912 683.8ZM471.432 677.88C472.765 677.88 474.125 677.747 475.512 677.48C476.952 677.213 478.312 676.92 479.592 676.6C480.872 676.227 481.912 675.907 482.712 675.64V663.64L472.072 664.68C469.832 664.84 468.232 665.48 467.272 666.6C466.312 667.667 465.832 669.213 465.832 671.24C465.832 673.32 466.285 674.947 467.192 676.12C468.152 677.293 469.565 677.88 471.432 677.88ZM501.337 700.44V642.92H508.777V645.72C509.577 645.24 510.617 644.733 511.897 644.2C513.177 643.613 514.537 643.133 515.977 642.76C517.417 642.333 518.803 642.12 520.137 642.12C523.603 642.12 526.403 642.84 528.537 644.28C530.723 645.72 532.323 647.96 533.337 651C534.403 653.987 534.937 657.853 534.937 662.6C534.937 667.773 534.323 671.933 533.097 675.08C531.923 678.173 530.03 680.413 527.417 681.8C524.857 683.133 521.523 683.8 517.417 683.8C515.817 683.8 514.19 683.693 512.537 683.48C510.937 683.267 509.683 683.08 508.777 682.92V700.44H501.337ZM516.697 677.4C519.363 677.4 521.47 676.893 523.017 675.88C524.617 674.867 525.737 673.267 526.377 671.08C527.017 668.893 527.337 666.04 527.337 662.52C527.337 657.4 526.59 653.827 525.097 651.8C523.603 649.72 521.497 648.68 518.777 648.68C517.603 648.68 516.377 648.84 515.097 649.16C513.87 649.427 512.697 649.773 511.577 650.2C510.457 650.573 509.523 651 508.777 651.48V676.68C509.577 676.787 510.723 676.947 512.217 677.16C513.763 677.32 515.257 677.4 516.697 677.4ZM543.915 683V642.92H551.355V683H543.915ZM543.915 634.84V627.08H551.355V634.84H543.915ZM575.48 683.88C572.653 683.88 570.386 683.453 568.68 682.6C567.026 681.747 565.826 680.28 565.08 678.2C564.386 676.067 564.04 673.08 564.04 669.24V649.24H558.6V642.92H564.04V631.16H571.4V642.92H583.32V649.24H571.4V667.16C571.4 669.773 571.506 671.827 571.72 673.32C571.986 674.76 572.493 675.773 573.24 676.36C573.986 676.947 575.16 677.24 576.76 677.24C577.293 677.24 577.96 677.24 578.76 677.24C579.56 677.187 580.386 677.133 581.24 677.08C582.093 676.973 582.84 676.893 583.48 676.84L583.88 682.92C583.08 683.08 582.146 683.213 581.08 683.32C580.066 683.48 579.053 683.613 578.04 683.72C577.026 683.827 576.173 683.88 575.48 683.88ZM599.443 683.8C595.656 683.8 592.776 682.76 590.803 680.68C588.829 678.6 587.843 675.533 587.843 671.48C587.843 668.76 588.323 666.573 589.283 664.92C590.243 663.213 591.656 661.933 593.523 661.08C595.443 660.227 597.816 659.72 600.643 659.56L612.243 658.44V655.32C612.243 652.813 611.683 651.053 610.563 650.04C609.443 648.973 607.763 648.44 605.523 648.44C604.136 648.44 602.509 648.493 600.643 648.6C598.776 648.707 596.936 648.84 595.123 649C593.309 649.16 591.683 649.32 590.243 649.48L589.923 644.04C591.256 643.72 592.829 643.427 594.643 643.16C596.509 642.893 598.456 642.653 600.483 642.44C602.509 642.227 604.376 642.12 606.083 642.12C609.229 642.12 611.816 642.573 613.843 643.48C615.869 644.387 617.363 645.8 618.323 647.72C619.283 649.64 619.763 652.12 619.763 655.16V674.84C619.869 675.907 620.296 676.707 621.043 677.24C621.843 677.72 622.829 678.04 624.003 678.2L623.763 683.72C623.016 683.72 622.269 683.693 621.523 683.64C620.776 683.64 620.083 683.587 619.443 683.48C618.803 683.373 618.189 683.24 617.603 683.08C616.749 682.867 615.976 682.573 615.283 682.2C614.643 681.773 614.029 681.293 613.443 680.76C612.483 681.187 611.229 681.64 609.683 682.12C608.136 682.6 606.483 683 604.723 683.32C602.963 683.64 601.203 683.8 599.443 683.8ZM600.963 677.88C602.296 677.88 603.656 677.747 605.043 677.48C606.483 677.213 607.843 676.92 609.123 676.6C610.403 676.227 611.443 675.907 612.243 675.64V663.64L601.603 664.68C599.363 664.84 597.763 665.48 596.803 666.6C595.843 667.667 595.363 669.213 595.363 671.24C595.363 673.32 595.816 674.947 596.723 676.12C597.683 677.293 599.096 677.88 600.963 677.88ZM631.348 683V625.88H638.708V683H631.348ZM668.31 683V627.88H688.95C692.577 627.88 695.617 628.36 698.07 629.32C700.577 630.28 702.47 631.8 703.75 633.88C705.084 635.907 705.75 638.573 705.75 641.88C705.75 644.227 705.484 646.2 704.95 647.8C704.417 649.4 703.644 650.76 702.63 651.88C701.67 652.947 700.444 653.853 698.95 654.6C700.55 655.187 701.99 655.987 703.27 657C704.55 657.96 705.537 659.293 706.23 661C706.977 662.707 707.35 664.867 707.35 667.48C707.35 670.413 706.924 672.893 706.07 674.92C705.27 676.893 704.097 678.467 702.55 679.64C701.004 680.813 699.137 681.667 696.95 682.2C694.817 682.733 692.444 683 689.83 683H668.31ZM675.99 676.68H689.43C691.564 676.68 693.377 676.413 694.87 675.88C696.417 675.293 697.617 674.333 698.47 673C699.324 671.613 699.75 669.667 699.75 667.16C699.75 665.187 699.377 663.613 698.63 662.44C697.937 661.213 697.03 660.307 695.91 659.72C694.844 659.08 693.697 658.653 692.47 658.44C691.297 658.227 690.177 658.12 689.11 658.12H675.99V676.68ZM675.99 651.88H689.03C691.217 651.88 692.977 651.56 694.31 650.92C695.644 650.227 696.604 649.213 697.19 647.88C697.83 646.493 698.15 644.76 698.15 642.68C698.15 639.747 697.35 637.613 695.75 636.28C694.204 634.893 691.804 634.2 688.55 634.2H675.99V651.88ZM725.771 683.8C721.984 683.8 719.104 682.76 717.131 680.68C715.158 678.6 714.171 675.533 714.171 671.48C714.171 668.76 714.651 666.573 715.611 664.92C716.571 663.213 717.984 661.933 719.851 661.08C721.771 660.227 724.144 659.72 726.971 659.56L738.571 658.44V655.32C738.571 652.813 738.011 651.053 736.891 650.04C735.771 648.973 734.091 648.44 731.851 648.44C730.464 648.44 728.838 648.493 726.971 648.6C725.104 648.707 723.264 648.84 721.451 649C719.638 649.16 718.011 649.32 716.571 649.48L716.251 644.04C717.584 643.72 719.158 643.427 720.971 643.16C722.838 642.893 724.784 642.653 726.811 642.44C728.838 642.227 730.704 642.12 732.411 642.12C735.558 642.12 738.144 642.573 740.171 643.48C742.198 644.387 743.691 645.8 744.651 647.72C745.611 649.64 746.091 652.12 746.091 655.16V674.84C746.198 675.907 746.624 676.707 747.371 677.24C748.171 677.72 749.158 678.04 750.331 678.2L750.091 683.72C749.344 683.72 748.598 683.693 747.851 683.64C747.104 683.64 746.411 683.587 745.771 683.48C745.131 683.373 744.518 683.24 743.931 683.08C743.078 682.867 742.304 682.573 741.611 682.2C740.971 681.773 740.358 681.293 739.771 680.76C738.811 681.187 737.558 681.64 736.011 682.12C734.464 682.6 732.811 683 731.051 683.32C729.291 683.64 727.531 683.8 725.771 683.8ZM727.291 677.88C728.624 677.88 729.984 677.747 731.371 677.48C732.811 677.213 734.171 676.92 735.451 676.6C736.731 676.227 737.771 675.907 738.571 675.64V663.64L727.931 664.68C725.691 664.84 724.091 665.48 723.131 666.6C722.171 667.667 721.691 669.213 721.691 671.24C721.691 673.32 722.144 674.947 723.051 676.12C724.011 677.293 725.424 677.88 727.291 677.88ZM757.196 683V642.92H764.636V645.72C765.489 645.187 766.583 644.653 767.916 644.12C769.249 643.587 770.663 643.133 772.156 642.76C773.649 642.333 775.089 642.12 776.476 642.12C779.249 642.12 781.516 642.493 783.276 643.24C785.089 643.933 786.503 645.08 787.516 646.68C788.529 648.227 789.249 650.253 789.676 652.76C790.103 655.267 790.316 658.307 790.316 661.88V683H782.796V662.28C782.796 658.973 782.609 656.333 782.236 654.36C781.863 652.387 781.116 650.973 779.996 650.12C778.876 649.213 777.196 648.76 774.956 648.76C773.729 648.76 772.449 648.893 771.116 649.16C769.836 649.427 768.609 649.773 767.436 650.2C766.316 650.627 765.383 651.027 764.636 651.4V683H757.196ZM800.555 683V625.88H807.995V659L813.755 658.76L824.155 642.92H832.395L820.235 661.56L832.955 683H824.715L813.915 665.32L807.995 665.56V683H800.555Z" fill="black"></path><path d="M190.49 601.84C186.597 601.84 183.05 601.12 179.85 599.68C176.65 598.24 174.117 596.24 172.25 593.68C170.383 591.12 169.45 588.187 169.45 584.88C169.45 582.853 169.77 579.44 170.41 574.64C171.05 569.84 171.797 565.013 172.65 560.16L178.57 560.48C177.77 565.707 177.077 570.64 176.49 575.28C175.903 579.867 175.61 582.933 175.61 584.48C175.61 586.773 176.25 588.827 177.53 590.64C178.863 592.453 180.65 593.84 182.89 594.8C185.13 595.813 187.61 596.32 190.33 596.32C194.277 596.32 197.61 595.28 200.33 593.2C203.103 591.173 204.49 588.267 204.49 584.48V524.56H210.65V585.2C210.65 588.773 209.717 591.813 207.85 594.32C206.037 596.827 203.583 598.693 200.49 599.92C197.45 601.2 194.117 601.84 190.49 601.84ZM238.693 576.48V582H225.013V524.56H231.173V576.48H238.693ZM238.672 576.48H258.672V582H238.672V576.48ZM288.672 576.48V582H258.672V576.48H270.592V542H276.752V576.48H288.672ZM265.632 527.84H271.712V534.56H265.632V527.84ZM275.632 527.84H281.712V534.56H275.632V527.84ZM288.672 576.48H308.672V582H288.672V576.48ZM308.672 576.48H328.672V582H308.672V576.48ZM328.672 576.48H348.672V582H328.672V576.48ZM366.752 542V582H348.672V576.48H360.592V542H366.752ZM360.592 588.4H366.672V595.12H360.592V588.4ZM394.005 576.48V582H380.325V524.56H386.485V576.48H394.005ZM422.624 547.44C427.264 547.44 430.651 549.067 432.784 552.32C434.971 555.573 436.064 559.787 436.064 564.96V582H393.984V576.48H429.904V564.88C429.904 561.68 429.291 558.907 428.064 556.56C426.891 554.213 424.918 553.013 422.144 552.96H400.464L396.384 547.44L400.544 539.28C401.504 537.36 402.944 535.04 404.864 532.32C406.838 529.547 408.811 526.96 410.784 524.56L415.184 527.04C412.731 530.72 410.891 533.573 409.664 535.6C408.438 537.573 407.318 539.547 406.304 541.52L403.264 547.44H422.624ZM465.638 524.56H471.798V582H465.638V524.56ZM488.104 601.92C487.251 601.92 486.451 601.893 485.704 601.84C485.011 601.787 484.398 601.733 483.864 601.68L482.184 601.52V596.08C484.851 596.293 486.531 596.4 487.224 596.4C489.891 596.4 491.864 595.333 493.144 593.2C494.478 591.12 495.144 588.187 495.144 584.4V542.08H501.304V582.88C501.304 595.573 496.904 601.92 488.104 601.92ZM527.273 540.48C529.406 540.48 531.966 540.64 534.953 540.96C537.993 541.28 540.5 541.627 542.473 542V577.04C542.473 585.52 541.406 591.76 539.273 595.76C537.193 599.813 533.566 601.84 528.393 601.84C525.94 601.84 521.913 601.44 516.313 600.64V595.2C521.273 595.947 525.166 596.32 527.993 596.32C529.86 596.32 531.353 595.973 532.473 595.28C533.646 594.64 534.58 593.28 535.273 591.2C535.966 589.12 536.313 586.053 536.313 582H524.553C518.74 582 514.873 580.16 512.953 576.48C511.086 572.8 510.153 568.027 510.153 562.16C510.153 557.2 510.633 553.173 511.593 550.08C512.553 546.933 514.286 544.56 516.793 542.96C519.3 541.307 522.793 540.48 527.273 540.48ZM516.313 562C516.313 566.267 517.006 569.76 518.393 572.48C519.78 575.147 522.606 576.48 526.873 576.48H536.313V546.56C533.433 546.187 530.926 546 528.793 546C525.54 546 523.006 546.613 521.193 547.84C519.38 549.013 518.1 550.773 517.353 553.12C516.66 555.413 516.313 558.373 516.313 562ZM556.386 601.92C555.532 601.92 554.732 601.893 553.986 601.84C553.292 601.787 552.679 601.733 552.146 601.68L550.466 601.52V596.08C553.132 596.293 554.812 596.4 555.506 596.4C558.172 596.4 560.146 595.333 561.426 593.2C562.759 591.12 563.426 588.187 563.426 584.4V542.08H569.586V582.88C569.586 595.573 565.186 601.92 556.386 601.92ZM595.554 540.48C597.688 540.48 600.248 540.64 603.234 540.96C606.274 541.28 608.781 541.627 610.754 542V577.04C610.754 585.52 609.688 591.76 607.554 595.76C605.474 599.813 601.848 601.84 596.674 601.84C594.221 601.84 590.194 601.44 584.594 600.64V595.2C589.554 595.947 593.448 596.32 596.274 596.32C598.141 596.32 599.634 595.973 600.754 595.28C601.928 594.64 602.861 593.28 603.554 591.2C604.248 589.12 604.594 586.053 604.594 582H592.834C587.021 582 583.154 580.16 581.234 576.48C579.368 572.8 578.434 568.027 578.434 562.16C578.434 557.2 578.914 553.173 579.874 550.08C580.834 546.933 582.568 544.56 585.074 542.96C587.581 541.307 591.074 540.48 595.554 540.48ZM584.594 562C584.594 566.267 585.288 569.76 586.674 572.48C588.061 575.147 590.888 576.48 595.154 576.48H604.594V546.56C601.714 546.187 599.208 546 597.074 546C593.821 546 591.288 546.613 589.474 547.84C587.661 549.013 586.381 550.773 585.634 553.12C584.941 555.413 584.594 558.373 584.594 562ZM622.747 531.44H628.907V582H622.747V531.44ZM634.027 525.28L617.707 528.48L616.987 525.92L620.827 524.88C619.014 523.387 618.107 521.493 618.107 519.2C618.107 517.227 618.8 515.547 620.187 514.16C621.574 512.72 623.36 512 625.547 512C626.774 512 627.92 512.213 628.987 512.64C630.054 513.067 630.854 513.493 631.387 513.92L630.587 516.96C630.267 516.693 629.76 516.427 629.067 516.16C628.427 515.893 627.707 515.76 626.907 515.76C625.52 515.76 624.374 516.213 623.467 517.12C622.614 518.027 622.187 519.093 622.187 520.32C622.187 521.867 622.8 523.093 624.027 524L633.147 521.6L634.027 525.28ZM719.272 576.48V582H678.392C673.272 582 669.219 581.573 666.232 580.72C663.245 579.867 661.059 578.507 659.672 576.64C658.339 574.773 657.672 572.213 657.672 568.96C657.672 565.333 658.365 560.053 659.752 553.12L664.712 553.36C664.499 554.853 664.365 555.973 664.312 556.72C663.565 561.733 663.192 565.333 663.192 567.52C663.192 569.813 663.645 571.6 664.552 572.88C665.512 574.16 667.059 575.093 669.192 575.68C671.379 576.213 674.419 576.48 678.312 576.48H701.192V524.56H707.352V576.48H719.272ZM690.072 550.4L673.752 553.6L673.032 551.04L676.872 550C675.059 548.507 674.152 546.613 674.152 544.32C674.152 542.347 674.845 540.667 676.232 539.28C677.619 537.84 679.405 537.12 681.592 537.12C682.819 537.12 683.965 537.333 685.032 537.76C686.099 538.187 686.899 538.613 687.432 539.04L686.632 542.08C686.312 541.813 685.805 541.547 685.112 541.28C684.472 541.013 683.752 540.88 682.952 540.88C681.565 540.88 680.419 541.333 679.512 542.24C678.659 543.147 678.232 544.213 678.232 545.44C678.232 546.987 678.845 548.213 680.072 549.12L689.192 546.72L690.072 550.4ZM749.297 576.48V582H719.297V576.48H731.217V542H737.377V576.48H749.297ZM731.217 527.84H737.297V534.56H731.217V527.84ZM749.297 576.48H769.297V582H749.297V576.48ZM769.297 576.48H789.297V582H769.297V576.48ZM789.297 576.48H809.297V582H789.297V576.48ZM827.377 542V582H809.297V576.48H821.217V542H827.377ZM821.217 588.4H827.297V595.12H821.217V588.4Z" fill="black"></path><defs><linearGradient id="paint0_linear_28_2" x1="0" y1="0.5" x2="91.5385" y2="0.5" gradientUnits="userSpaceOnUse"><stop></stop><stop offset="0.764999" stop-color="white" stop-opacity="0"></stop></linearGradient><linearGradient id="paint1_linear_28_2" x1="0" y1="0.5" x2="65.3846" y2="0.5" gradientUnits="userSpaceOnUse"><stop></stop><stop offset="0.764999" stop-color="white" stop-opacity="0"></stop></linearGradient><linearGradient id="paint2_linear_28_2" x1="0" y1="0.5" x2="107.231" y2="0.5" gradientUnits="userSpaceOnUse"><stop></stop><stop offset="0.764999" stop-color="white" stop-opacity="0"></stop></linearGradient><linearGradient id="paint3_linear_28_2" x1="0" y1="0.5" x2="135.128" y2="0.5" gradientUnits="userSpaceOnUse"><stop></stop><stop offset="0.764999" stop-color="white" stop-opacity="0"></stop></linearGradient><linearGradient id="paint4_linear_28_2" x1="0" y1="0.5" x2="147.333" y2="0.5" gradientUnits="userSpaceOnUse"><stop></stop><stop offset="0.764999" stop-color="white" stop-opacity="0"></stop></linearGradient><linearGradient id="paint5_linear_28_2" x1="0" y1="0.5" x2="155.179" y2="0.5" gradientUnits="userSpaceOnUse"><stop></stop><stop offset="0.764999" stop-color="white" stop-opacity="0"></stop></linearGradient><linearGradient id="paint6_linear_28_2" x1="0" y1="0.5" x2="177.846" y2="0.5" gradientUnits="userSpaceOnUse"><stop></stop><stop offset="0.764999" stop-color="white" stop-opacity="0"></stop></linearGradient><linearGradient id="paint7_linear_28_2" x1="0" y1="0.5" x2="186.564" y2="0.5" gradientUnits="userSpaceOnUse"><stop></stop><stop offset="0.764999" stop-color="white" stop-opacity="0"></stop></linearGradient><linearGradient id="paint8_linear_28_2" x1="0" y1="0.5" x2="170" y2="0.5" gradientUnits="userSpaceOnUse"><stop></stop><stop offset="0.764999" stop-color="white" stop-opacity="0"></stop></linearGradient><linearGradient id="paint9_linear_28_2" x1="0" y1="0.5" x2="142.974" y2="0.5" gradientUnits="userSpaceOnUse"><stop></stop><stop offset="0.764999" stop-color="white" stop-opacity="0"></stop></linearGradient><linearGradient id="paint10_linear_28_2" x1="0" y1="0.5" x2="120.308" y2="0.5" gradientUnits="userSpaceOnUse"><stop></stop><stop offset="0.764999" stop-color="white" stop-opacity="0"></stop></linearGradient><linearGradient id="paint11_linear_28_2" x1="0" y1="0.5" x2="112.462" y2="0.5" gradientUnits="userSpaceOnUse"><stop></stop><stop offset="0.764999" stop-color="white" stop-opacity="0"></stop></linearGradient><linearGradient id="paint12_linear_28_2" x1="0" y1="0.5" x2="82.8205" y2="0.5" gradientUnits="userSpaceOnUse"><stop></stop><stop offset="0.764999" stop-color="white" stop-opacity="0"></stop></linearGradient><linearGradient id="paint13_linear_28_2" x1="0" y1="0.5" x2="65.3846" y2="0.5" gradientUnits="userSpaceOnUse"><stop></stop><stop offset="0.764999" stop-color="white" stop-opacity="0"></stop></linearGradient></defs></svg>