<svg xmlns="http://www.w3.org/2000/svg" fill="none" viewBox="168.75 222 662.87 478.6"><line x1="5" y1="-5" x2="86.5385" y2="-5" transform="matrix(4.37114e-08 -1 -1 -4.37114e-08 313 438.205)" stroke="url(#paint0_linear_8_2)" stroke-width="10" stroke-miterlimit="5.75877" stroke-linecap="round"></line><line x1="5" y1="-5" x2="60.3846" y2="-5" transform="matrix(4.37114e-08 -1 -1 -4.37114e-08 279 412.051)" stroke="url(#paint1_linear_8_2)" stroke-width="10" stroke-miterlimit="5.75877" stroke-linecap="round"></line><line x1="5" y1="-5" x2="102.231" y2="-5" transform="matrix(3.42966e-08 -1 -1 -5.57106e-08 347 453.897)" stroke="url(#paint2_linear_8_2)" stroke-width="10" stroke-miterlimit="5.75877" stroke-linecap="round"></line><line x1="5" y1="-5" x2="130.128" y2="-5" transform="matrix(3.44311e-08 -1 -1 -5.5493e-08 381 464.359)" stroke="url(#paint3_linear_8_2)" stroke-width="10" stroke-miterlimit="5.75877" stroke-linecap="round"></line><line x1="5" y1="-5" x2="142.333" y2="-5" transform="matrix(3.42966e-08 -1 -1 -5.57106e-08 415 453.897)" stroke="url(#paint4_linear_8_2)" stroke-width="10" stroke-miterlimit="5.75877" stroke-linecap="round"></line><line x1="5" y1="-5" x2="150.179" y2="-5" transform="matrix(3.42966e-08 -1 -1 -5.57106e-08 449 438.205)" stroke="url(#paint5_linear_8_2)" stroke-width="10" stroke-miterlimit="5.75877" stroke-linecap="round"></line><line x1="5" y1="-5" x2="172.846" y2="-5" transform="matrix(3.42966e-08 -1 -1 -5.57106e-08 483 427.744)" stroke="url(#paint6_linear_8_2)" stroke-width="10" stroke-miterlimit="5.75877" stroke-linecap="round"></line><line x1="5" y1="-5" x2="181.564" y2="-5" transform="matrix(3.42966e-08 -1 -1 -5.57106e-08 517 408.564)" stroke="url(#paint7_linear_8_2)" stroke-width="10" stroke-miterlimit="5.75877" stroke-linecap="round"></line><line x1="5" y1="-5" x2="165" y2="-5" transform="matrix(3.42966e-08 -1 -1 -5.57106e-08 551 392)" stroke="url(#paint8_linear_8_2)" stroke-width="10" stroke-miterlimit="5.75877" stroke-linecap="round"></line><line x1="5" y1="-5" x2="137.974" y2="-5" transform="matrix(3.42966e-08 -1 -1 -5.57106e-08 585 378.923)" stroke="url(#paint9_linear_8_2)" stroke-width="10" stroke-miterlimit="5.75877" stroke-linecap="round"></line><line x1="5" y1="-5" x2="115.308" y2="-5" transform="matrix(3.42966e-08 -1 -1 -5.57106e-08 619 378.923)" stroke="url(#paint10_linear_8_2)" stroke-width="10" stroke-miterlimit="5.75877" stroke-linecap="round"></line><line x1="5" y1="-5" x2="107.462" y2="-5" transform="matrix(3.42966e-08 -1 -1 -5.57106e-08 653 395.487)" stroke="url(#paint11_linear_8_2)" stroke-width="10" stroke-miterlimit="5.75877" stroke-linecap="round"></line><line x1="5" y1="-5" x2="77.8205" y2="-5" transform="matrix(3.42966e-08 -1 -1 -5.57106e-08 687 412.051)" stroke="url(#paint12_linear_8_2)" stroke-width="10" stroke-miterlimit="5.75877" stroke-linecap="round"></line><line x1="5" y1="-5" x2="60.3846" y2="-5" transform="matrix(3.42966e-08 -1 -1 -5.57106e-08 721 429.487)" stroke="url(#paint13_linear_8_2)" stroke-width="10" stroke-miterlimit="5.75877" stroke-linecap="round"></line><path d="M168.752 683L183.632 627.8H198.272L213.152 683H206.112L202.272 669.4H179.552L175.712 683H168.752ZM180.912 663.32H200.912L192.912 633.72H188.912L180.912 663.32ZM232.02 683.8C228.606 683.8 225.966 683.107 224.1 681.72C222.286 680.333 221.033 678.173 220.34 675.24C219.7 672.253 219.38 668.467 219.38 663.88V643H226.1V663.8C226.1 667.213 226.26 669.933 226.58 671.96C226.953 673.987 227.7 675.453 228.82 676.36C229.993 677.267 231.7 677.72 233.94 677.72C236.18 677.72 238.233 677.427 240.1 676.84C241.966 676.2 243.46 675.56 244.58 674.92V643H251.38V683H244.58V680.28C242.873 681.24 241.033 682.067 239.06 682.76C237.086 683.453 234.74 683.8 232.02 683.8ZM262.514 683V643H269.234V648.28C270.247 647.587 271.501 646.84 272.994 646.04C274.541 645.187 276.221 644.387 278.034 643.64C279.847 642.893 281.661 642.387 283.474 642.12V648.92C281.714 649.293 279.927 649.773 278.114 650.36C276.301 650.947 274.621 651.587 273.074 652.28C271.527 652.973 270.247 653.587 269.234 654.12V683H262.514ZM305.223 683.8C300.743 683.8 297.223 683.027 294.663 681.48C292.157 679.933 290.397 677.613 289.383 674.52C288.37 671.373 287.863 667.373 287.863 662.52C287.863 657.933 288.423 654.147 289.543 651.16C290.663 648.12 292.503 645.88 295.063 644.44C297.623 642.947 301.01 642.2 305.223 642.2C309.49 642.2 312.903 642.947 315.463 644.44C318.023 645.88 319.863 648.12 320.983 651.16C322.103 654.147 322.663 657.933 322.663 662.52C322.663 667.373 322.13 671.373 321.063 674.52C320.05 677.613 318.29 679.933 315.783 681.48C313.277 683.027 309.757 683.8 305.223 683.8ZM305.223 677.96C308.21 677.96 310.45 677.453 311.943 676.44C313.437 675.373 314.423 673.693 314.903 671.4C315.383 669.107 315.623 666.147 315.623 662.52C315.623 658.947 315.303 656.093 314.663 653.96C314.077 651.827 313.037 650.307 311.543 649.4C310.05 648.493 307.943 648.04 305.223 648.04C302.557 648.04 300.45 648.493 298.903 649.4C297.41 650.307 296.343 651.827 295.703 653.96C295.117 656.093 294.823 658.947 294.823 662.52C294.823 666.147 295.063 669.107 295.543 671.4C296.023 673.693 297.01 675.373 298.503 676.44C299.997 677.453 302.237 677.96 305.223 677.96ZM332.123 683V643H338.843V648.28C339.857 647.587 341.11 646.84 342.603 646.04C344.15 645.187 345.83 644.387 347.643 643.64C349.457 642.893 351.27 642.387 353.083 642.12V648.92C351.323 649.293 349.537 649.773 347.723 650.36C345.91 650.947 344.23 651.587 342.683 652.28C341.137 652.973 339.857 653.587 338.843 654.12V683H332.123ZM368.896 683.8C365.109 683.8 362.229 682.76 360.256 680.68C358.336 678.6 357.376 675.533 357.376 671.48C357.376 668.813 357.829 666.653 358.736 665C359.696 663.347 361.109 662.093 362.976 661.24C364.896 660.387 367.216 659.853 369.936 659.64L381.936 658.44V655.16C381.936 652.547 381.349 650.707 380.176 649.64C379.003 648.573 377.296 648.04 375.056 648.04C373.669 648.04 372.043 648.093 370.176 648.2C368.363 648.307 366.523 648.44 364.656 648.6C362.843 648.76 361.243 648.92 359.856 649.08L359.536 643.96C360.816 643.693 362.363 643.427 364.176 643.16C366.043 642.893 367.963 642.68 369.936 642.52C371.963 642.307 373.803 642.2 375.456 642.2C378.549 642.2 381.083 642.653 383.056 643.56C385.029 644.467 386.469 645.88 387.376 647.8C388.336 649.667 388.816 652.093 388.816 655.08V675.08C388.923 676.2 389.376 677.027 390.176 677.56C390.976 678.04 391.989 678.36 393.216 678.52L392.976 683.8C392.229 683.8 391.483 683.773 390.736 683.72C390.043 683.667 389.376 683.587 388.736 683.48C388.096 683.373 387.509 683.24 386.976 683.08C386.176 682.813 385.456 682.493 384.816 682.12C384.176 681.693 383.563 681.213 382.976 680.68C381.963 681.107 380.683 681.56 379.136 682.04C377.589 682.52 375.936 682.92 374.176 683.24C372.416 683.613 370.656 683.8 368.896 683.8ZM370.096 678.2C371.483 678.2 372.923 678.093 374.416 677.88C375.909 677.613 377.323 677.293 378.656 676.92C379.989 676.547 381.083 676.2 381.936 675.88V663.4L370.816 664.44C368.523 664.653 366.869 665.347 365.856 666.52C364.843 667.64 364.336 669.24 364.336 671.32C364.336 673.453 364.816 675.133 365.776 676.36C366.789 677.587 368.229 678.2 370.096 678.2ZM437.265 683.8C433.051 683.8 429.611 683.213 426.945 682.04C424.331 680.813 422.251 679 420.705 676.6C419.211 674.2 418.171 671.24 417.585 667.72C417.051 664.2 416.785 660.12 416.785 655.48C416.785 650.787 417.051 646.653 417.585 643.08C418.171 639.507 419.211 636.52 420.705 634.12C422.251 631.72 424.358 629.933 427.025 628.76C429.691 627.533 433.105 626.92 437.265 626.92C439.185 626.92 441.078 627.027 442.945 627.24C444.865 627.4 446.651 627.64 448.305 627.96C450.011 628.227 451.451 628.493 452.625 628.76L452.385 634.6C451.211 634.387 449.771 634.173 448.065 633.96C446.411 633.747 444.705 633.587 442.945 633.48C441.185 633.32 439.585 633.24 438.145 633.24C435.158 633.24 432.731 633.667 430.865 634.52C429.051 635.373 427.638 636.733 426.625 638.6C425.665 640.413 424.998 642.733 424.625 645.56C424.251 648.333 424.065 651.64 424.065 655.48C424.065 659.267 424.251 662.573 424.625 665.4C424.998 668.173 425.665 670.467 426.625 672.28C427.585 674.04 428.998 675.373 430.865 676.28C432.731 677.133 435.185 677.56 438.225 677.56C440.465 677.56 442.918 677.427 445.585 677.16C448.251 676.84 450.518 676.52 452.385 676.2L452.625 682.12C451.345 682.387 449.851 682.653 448.145 682.92C446.438 683.187 444.625 683.4 442.705 683.56C440.838 683.72 439.025 683.8 437.265 683.8ZM470.302 683.8C466.516 683.8 463.636 682.76 461.662 680.68C459.742 678.6 458.782 675.533 458.782 671.48C458.782 668.813 459.236 666.653 460.142 665C461.102 663.347 462.516 662.093 464.382 661.24C466.302 660.387 468.622 659.853 471.342 659.64L483.342 658.44V655.16C483.342 652.547 482.756 650.707 481.582 649.64C480.409 648.573 478.702 648.04 476.462 648.04C475.076 648.04 473.449 648.093 471.582 648.2C469.769 648.307 467.929 648.44 466.062 648.6C464.249 648.76 462.649 648.92 461.262 649.08L460.942 643.96C462.222 643.693 463.769 643.427 465.582 643.16C467.449 642.893 469.369 642.68 471.342 642.52C473.369 642.307 475.209 642.2 476.862 642.2C479.956 642.2 482.489 642.653 484.462 643.56C486.436 644.467 487.876 645.88 488.782 647.8C489.742 649.667 490.222 652.093 490.222 655.08V675.08C490.329 676.2 490.782 677.027 491.582 677.56C492.382 678.04 493.396 678.36 494.622 678.52L494.382 683.8C493.636 683.8 492.889 683.773 492.142 683.72C491.449 683.667 490.782 683.587 490.142 683.48C489.502 683.373 488.916 683.24 488.382 683.08C487.582 682.813 486.862 682.493 486.222 682.12C485.582 681.693 484.969 681.213 484.382 680.68C483.369 681.107 482.089 681.56 480.542 682.04C478.996 682.52 477.342 682.92 475.582 683.24C473.822 683.613 472.062 683.8 470.302 683.8ZM471.502 678.2C472.889 678.2 474.329 678.093 475.822 677.88C477.316 677.613 478.729 677.293 480.062 676.92C481.396 676.547 482.489 676.2 483.342 675.88V663.4L472.222 664.44C469.929 664.653 468.276 665.347 467.262 666.52C466.249 667.64 465.742 669.24 465.742 671.32C465.742 673.453 466.222 675.133 467.182 676.36C468.196 677.587 469.636 678.2 471.502 678.2ZM501.733 700.6V643H508.453V645.8C509.306 645.267 510.373 644.733 511.653 644.2C512.933 643.613 514.293 643.133 515.733 642.76C517.226 642.387 518.666 642.2 520.053 642.2C523.519 642.2 526.319 642.92 528.453 644.36C530.586 645.747 532.159 647.96 533.173 651C534.239 653.987 534.773 657.827 534.773 662.52C534.773 667.747 534.159 671.933 532.933 675.08C531.759 678.173 529.866 680.413 527.253 681.8C524.693 683.133 521.359 683.8 517.253 683.8C515.653 683.8 513.999 683.693 512.293 683.48C510.639 683.267 509.359 683.08 508.453 682.92V700.6H501.733ZM516.693 677.88C519.519 677.88 521.733 677.373 523.333 676.36C524.933 675.293 526.053 673.64 526.693 671.4C527.386 669.107 527.733 666.147 527.733 662.52C527.733 657.293 526.959 653.613 525.413 651.48C523.866 649.293 521.706 648.2 518.933 648.2C517.706 648.2 516.426 648.36 515.093 648.68C513.813 649 512.586 649.373 511.413 649.8C510.239 650.227 509.253 650.68 508.453 651.16V677.16C509.306 677.267 510.506 677.427 512.053 677.64C513.653 677.8 515.199 677.88 516.693 677.88ZM544.155 683V643H550.875V683H544.155ZM544.155 634.52V627.08H550.875V634.52H544.155ZM575.245 683.88C572.472 683.88 570.259 683.453 568.605 682.6C566.952 681.747 565.752 680.28 565.005 678.2C564.312 676.067 563.965 673.08 563.965 669.24V648.84H558.445V643H563.965V631H570.765V643H583.005V648.84H570.765V667.32C570.765 670.04 570.872 672.173 571.085 673.72C571.352 675.213 571.859 676.28 572.605 676.92C573.405 677.507 574.632 677.8 576.285 677.8C576.819 677.8 577.485 677.773 578.285 677.72C579.139 677.667 579.992 677.613 580.845 677.56C581.752 677.453 582.525 677.373 583.165 677.32L583.565 683C582.819 683.107 581.912 683.213 580.845 683.32C579.832 683.48 578.819 683.613 577.805 683.72C576.792 683.827 575.939 683.88 575.245 683.88ZM599.13 683.8C595.344 683.8 592.464 682.76 590.49 680.68C588.57 678.6 587.61 675.533 587.61 671.48C587.61 668.813 588.064 666.653 588.97 665C589.93 663.347 591.344 662.093 593.21 661.24C595.13 660.387 597.45 659.853 600.17 659.64L612.17 658.44V655.16C612.17 652.547 611.584 650.707 610.41 649.64C609.237 648.573 607.53 648.04 605.29 648.04C603.904 648.04 602.277 648.093 600.41 648.2C598.597 648.307 596.757 648.44 594.89 648.6C593.077 648.76 591.477 648.92 590.09 649.08L589.77 643.96C591.05 643.693 592.597 643.427 594.41 643.16C596.277 642.893 598.197 642.68 600.17 642.52C602.197 642.307 604.037 642.2 605.69 642.2C608.784 642.2 611.317 642.653 613.29 643.56C615.264 644.467 616.704 645.88 617.61 647.8C618.57 649.667 619.05 652.093 619.05 655.08V675.08C619.157 676.2 619.61 677.027 620.41 677.56C621.21 678.04 622.224 678.36 623.45 678.52L623.21 683.8C622.464 683.8 621.717 683.773 620.97 683.72C620.277 683.667 619.61 683.587 618.97 683.48C618.33 683.373 617.744 683.24 617.21 683.08C616.41 682.813 615.69 682.493 615.05 682.12C614.41 681.693 613.797 681.213 613.21 680.68C612.197 681.107 610.917 681.56 609.37 682.04C607.824 682.52 606.17 682.92 604.41 683.24C602.65 683.613 600.89 683.8 599.13 683.8ZM600.33 678.2C601.717 678.2 603.157 678.093 604.65 677.88C606.144 677.613 607.557 677.293 608.89 676.92C610.224 676.547 611.317 676.2 612.17 675.88V663.4L601.05 664.44C598.757 664.653 597.104 665.347 596.09 666.52C595.077 667.64 594.57 669.24 594.57 671.32C594.57 673.453 595.05 675.133 596.01 676.36C597.024 677.587 598.464 678.2 600.33 678.2ZM630.961 683V625.72H637.761V683H630.961ZM667.847 683V627.8H688.247C691.874 627.8 694.914 628.28 697.367 629.24C699.821 630.2 701.687 631.72 702.967 633.8C704.247 635.827 704.887 638.52 704.887 641.88C704.887 644.173 704.594 646.147 704.007 647.8C703.474 649.4 702.701 650.733 701.687 651.8C700.727 652.867 699.501 653.8 698.007 654.6C699.607 655.133 701.047 655.907 702.327 656.92C703.607 657.933 704.621 659.293 705.367 661C706.167 662.653 706.567 664.813 706.567 667.48C706.567 670.36 706.141 672.813 705.287 674.84C704.487 676.813 703.314 678.413 701.767 679.64C700.221 680.813 698.381 681.667 696.247 682.2C694.167 682.733 691.794 683 689.127 683H667.847ZM674.887 677.08H688.807C690.994 677.08 692.887 676.787 694.487 676.2C696.087 675.613 697.314 674.627 698.167 673.24C699.021 671.8 699.447 669.773 699.447 667.16C699.447 665.187 699.074 663.587 698.327 662.36C697.634 661.08 696.701 660.147 695.527 659.56C694.407 658.92 693.234 658.493 692.007 658.28C690.781 658.067 689.634 657.96 688.567 657.96H674.887V677.08ZM674.887 652.04H688.487C690.674 652.04 692.461 651.693 693.847 651C695.234 650.307 696.247 649.267 696.887 647.88C697.527 646.44 697.847 644.653 697.847 642.52C697.847 639.48 697.021 637.267 695.367 635.88C693.767 634.44 691.287 633.72 687.927 633.72H674.887V652.04ZM725.146 683.8C721.359 683.8 718.479 682.76 716.506 680.68C714.586 678.6 713.626 675.533 713.626 671.48C713.626 668.813 714.079 666.653 714.986 665C715.946 663.347 717.359 662.093 719.226 661.24C721.146 660.387 723.466 659.853 726.186 659.64L738.186 658.44V655.16C738.186 652.547 737.599 650.707 736.426 649.64C735.253 648.573 733.546 648.04 731.306 648.04C729.919 648.04 728.293 648.093 726.426 648.2C724.613 648.307 722.773 648.44 720.906 648.6C719.093 648.76 717.493 648.92 716.106 649.08L715.786 643.96C717.066 643.693 718.613 643.427 720.426 643.16C722.293 642.893 724.213 642.68 726.186 642.52C728.213 642.307 730.053 642.2 731.706 642.2C734.799 642.2 737.333 642.653 739.306 643.56C741.279 644.467 742.719 645.88 743.626 647.8C744.586 649.667 745.066 652.093 745.066 655.08V675.08C745.173 676.2 745.626 677.027 746.426 677.56C747.226 678.04 748.239 678.36 749.466 678.52L749.226 683.8C748.479 683.8 747.733 683.773 746.986 683.72C746.293 683.667 745.626 683.587 744.986 683.48C744.346 683.373 743.759 683.24 743.226 683.08C742.426 682.813 741.706 682.493 741.066 682.12C740.426 681.693 739.813 681.213 739.226 680.68C738.213 681.107 736.933 681.56 735.386 682.04C733.839 682.52 732.186 682.92 730.426 683.24C728.666 683.613 726.906 683.8 725.146 683.8ZM726.346 678.2C727.733 678.2 729.173 678.093 730.666 677.88C732.159 677.613 733.573 677.293 734.906 676.92C736.239 676.547 737.333 676.2 738.186 675.88V663.4L727.066 664.44C724.773 664.653 723.119 665.347 722.106 666.52C721.093 667.64 720.586 669.24 720.586 671.32C720.586 673.453 721.066 675.133 722.026 676.36C723.039 677.587 724.479 678.2 726.346 678.2ZM756.577 683V643H763.297V645.72C764.203 645.187 765.323 644.653 766.657 644.12C768.043 643.587 769.483 643.133 770.977 642.76C772.523 642.387 773.99 642.2 775.377 642.2C778.15 642.2 780.417 642.573 782.177 643.32C783.99 644.013 785.377 645.16 786.337 646.76C787.35 648.307 788.043 650.333 788.417 652.84C788.843 655.293 789.057 658.307 789.057 661.88V683H782.257V662.12C782.257 658.76 782.043 656.067 781.617 654.04C781.243 652.013 780.47 650.547 779.297 649.64C778.177 648.733 776.417 648.28 774.017 648.28C772.737 648.28 771.403 648.44 770.017 648.76C768.683 649.027 767.43 649.373 766.257 649.8C765.083 650.227 764.097 650.653 763.297 651.08V683H756.577ZM799.78 683V625.72H806.5V659.16L812.5 659L823.3 643H830.98L818.5 661.48L831.62 683H823.94L812.66 664.92L806.5 665.24V683H799.78Z" fill="white"></path><path d="M190.49 601.84C186.597 601.84 183.05 601.12 179.85 599.68C176.65 598.24 174.117 596.24 172.25 593.68C170.383 591.12 169.45 588.187 169.45 584.88C169.45 582.853 169.77 579.44 170.41 574.64C171.05 569.84 171.797 565.013 172.65 560.16L178.57 560.48C177.77 565.707 177.077 570.64 176.49 575.28C175.903 579.867 175.61 582.933 175.61 584.48C175.61 586.773 176.25 588.827 177.53 590.64C178.863 592.453 180.65 593.84 182.89 594.8C185.13 595.813 187.61 596.32 190.33 596.32C194.277 596.32 197.61 595.28 200.33 593.2C203.103 591.173 204.49 588.267 204.49 584.48V524.56H210.65V585.2C210.65 588.773 209.717 591.813 207.85 594.32C206.037 596.827 203.583 598.693 200.49 599.92C197.45 601.2 194.117 601.84 190.49 601.84ZM238.693 576.48V582H225.013V524.56H231.173V576.48H238.693ZM238.672 576.48H258.672V582H238.672V576.48ZM288.672 576.48V582H258.672V576.48H270.592V542H276.752V576.48H288.672ZM265.632 527.84H271.712V534.56H265.632V527.84ZM275.632 527.84H281.712V534.56H275.632V527.84ZM288.672 576.48H308.672V582H288.672V576.48ZM308.672 576.48H328.672V582H308.672V576.48ZM328.672 576.48H348.672V582H328.672V576.48ZM366.752 542V582H348.672V576.48H360.592V542H366.752ZM360.592 588.4H366.672V595.12H360.592V588.4ZM394.005 576.48V582H380.325V524.56H386.485V576.48H394.005ZM422.624 547.44C427.264 547.44 430.651 549.067 432.784 552.32C434.971 555.573 436.064 559.787 436.064 564.96V582H393.984V576.48H429.904V564.88C429.904 561.68 429.291 558.907 428.064 556.56C426.891 554.213 424.918 553.013 422.144 552.96H400.464L396.384 547.44L400.544 539.28C401.504 537.36 402.944 535.04 404.864 532.32C406.838 529.547 408.811 526.96 410.784 524.56L415.184 527.04C412.731 530.72 410.891 533.573 409.664 535.6C408.438 537.573 407.318 539.547 406.304 541.52L403.264 547.44H422.624ZM465.638 524.56H471.798V582H465.638V524.56ZM488.104 601.92C487.251 601.92 486.451 601.893 485.704 601.84C485.011 601.787 484.398 601.733 483.864 601.68L482.184 601.52V596.08C484.851 596.293 486.531 596.4 487.224 596.4C489.891 596.4 491.864 595.333 493.144 593.2C494.478 591.12 495.144 588.187 495.144 584.4V542.08H501.304V582.88C501.304 595.573 496.904 601.92 488.104 601.92ZM527.273 540.48C529.406 540.48 531.966 540.64 534.953 540.96C537.993 541.28 540.5 541.627 542.473 542V577.04C542.473 585.52 541.406 591.76 539.273 595.76C537.193 599.813 533.566 601.84 528.393 601.84C525.94 601.84 521.913 601.44 516.313 600.64V595.2C521.273 595.947 525.166 596.32 527.993 596.32C529.86 596.32 531.353 595.973 532.473 595.28C533.646 594.64 534.58 593.28 535.273 591.2C535.966 589.12 536.313 586.053 536.313 582H524.553C518.74 582 514.873 580.16 512.953 576.48C511.086 572.8 510.153 568.027 510.153 562.16C510.153 557.2 510.633 553.173 511.593 550.08C512.553 546.933 514.286 544.56 516.793 542.96C519.3 541.307 522.793 540.48 527.273 540.48ZM516.313 562C516.313 566.267 517.006 569.76 518.393 572.48C519.78 575.147 522.606 576.48 526.873 576.48H536.313V546.56C533.433 546.187 530.926 546 528.793 546C525.54 546 523.006 546.613 521.193 547.84C519.38 549.013 518.1 550.773 517.353 553.12C516.66 555.413 516.313 558.373 516.313 562ZM556.386 601.92C555.532 601.92 554.732 601.893 553.986 601.84C553.292 601.787 552.679 601.733 552.146 601.68L550.466 601.52V596.08C553.132 596.293 554.812 596.4 555.506 596.4C558.172 596.4 560.146 595.333 561.426 593.2C562.759 591.12 563.426 588.187 563.426 584.4V542.08H569.586V582.88C569.586 595.573 565.186 601.92 556.386 601.92ZM595.554 540.48C597.688 540.48 600.248 540.64 603.234 540.96C606.274 541.28 608.781 541.627 610.754 542V577.04C610.754 585.52 609.688 591.76 607.554 595.76C605.474 599.813 601.848 601.84 596.674 601.84C594.221 601.84 590.194 601.44 584.594 600.64V595.2C589.554 595.947 593.448 596.32 596.274 596.32C598.141 596.32 599.634 595.973 600.754 595.28C601.928 594.64 602.861 593.28 603.554 591.2C604.248 589.12 604.594 586.053 604.594 582H592.834C587.021 582 583.154 580.16 581.234 576.48C579.368 572.8 578.434 568.027 578.434 562.16C578.434 557.2 578.914 553.173 579.874 550.08C580.834 546.933 582.568 544.56 585.074 542.96C587.581 541.307 591.074 540.48 595.554 540.48ZM584.594 562C584.594 566.267 585.288 569.76 586.674 572.48C588.061 575.147 590.888 576.48 595.154 576.48H604.594V546.56C601.714 546.187 599.208 546 597.074 546C593.821 546 591.288 546.613 589.474 547.84C587.661 549.013 586.381 550.773 585.634 553.12C584.941 555.413 584.594 558.373 584.594 562ZM622.747 531.44H628.907V582H622.747V531.44ZM634.027 525.28L617.707 528.48L616.987 525.92L620.827 524.88C619.014 523.387 618.107 521.493 618.107 519.2C618.107 517.227 618.8 515.547 620.187 514.16C621.574 512.72 623.36 512 625.547 512C626.774 512 627.92 512.213 628.987 512.64C630.054 513.067 630.854 513.493 631.387 513.92L630.587 516.96C630.267 516.693 629.76 516.427 629.067 516.16C628.427 515.893 627.707 515.76 626.907 515.76C625.52 515.76 624.374 516.213 623.467 517.12C622.614 518.027 622.187 519.093 622.187 520.32C622.187 521.867 622.8 523.093 624.027 524L633.147 521.6L634.027 525.28ZM719.272 576.48V582H678.392C673.272 582 669.219 581.573 666.232 580.72C663.245 579.867 661.059 578.507 659.672 576.64C658.339 574.773 657.672 572.213 657.672 568.96C657.672 565.333 658.365 560.053 659.752 553.12L664.712 553.36C664.499 554.853 664.365 555.973 664.312 556.72C663.565 561.733 663.192 565.333 663.192 567.52C663.192 569.813 663.645 571.6 664.552 572.88C665.512 574.16 667.059 575.093 669.192 575.68C671.379 576.213 674.419 576.48 678.312 576.48H701.192V524.56H707.352V576.48H719.272ZM690.072 550.4L673.752 553.6L673.032 551.04L676.872 550C675.059 548.507 674.152 546.613 674.152 544.32C674.152 542.347 674.845 540.667 676.232 539.28C677.619 537.84 679.405 537.12 681.592 537.12C682.819 537.12 683.965 537.333 685.032 537.76C686.099 538.187 686.899 538.613 687.432 539.04L686.632 542.08C686.312 541.813 685.805 541.547 685.112 541.28C684.472 541.013 683.752 540.88 682.952 540.88C681.565 540.88 680.419 541.333 679.512 542.24C678.659 543.147 678.232 544.213 678.232 545.44C678.232 546.987 678.845 548.213 680.072 549.12L689.192 546.72L690.072 550.4ZM749.297 576.48V582H719.297V576.48H731.217V542H737.377V576.48H749.297ZM731.217 527.84H737.297V534.56H731.217V527.84ZM749.297 576.48H769.297V582H749.297V576.48ZM769.297 576.48H789.297V582H769.297V576.48ZM789.297 576.48H809.297V582H789.297V576.48ZM827.377 542V582H809.297V576.48H821.217V542H827.377ZM821.217 588.4H827.297V595.12H821.217V588.4Z" fill="white"></path><defs><linearGradient id="paint0_linear_8_2" x1="0" y1="0.5" x2="91.5385" y2="0.5" gradientUnits="userSpaceOnUse"><stop stop-color="white"></stop><stop offset="0.764999" stop-opacity="0"></stop></linearGradient><linearGradient id="paint1_linear_8_2" x1="0" y1="0.5" x2="65.3846" y2="0.5" gradientUnits="userSpaceOnUse"><stop stop-color="white"></stop><stop offset="0.764999" stop-opacity="0"></stop></linearGradient><linearGradient id="paint2_linear_8_2" x1="0" y1="0.5" x2="107.231" y2="0.5" gradientUnits="userSpaceOnUse"><stop stop-color="white"></stop><stop offset="0.764999" stop-opacity="0"></stop></linearGradient><linearGradient id="paint3_linear_8_2" x1="0" y1="0.5" x2="135.128" y2="0.5" gradientUnits="userSpaceOnUse"><stop stop-color="white"></stop><stop offset="0.764999" stop-opacity="0"></stop></linearGradient><linearGradient id="paint4_linear_8_2" x1="0" y1="0.5" x2="147.333" y2="0.5" gradientUnits="userSpaceOnUse"><stop stop-color="white"></stop><stop offset="0.764999" stop-opacity="0"></stop></linearGradient><linearGradient id="paint5_linear_8_2" x1="0" y1="0.5" x2="155.179" y2="0.5" gradientUnits="userSpaceOnUse"><stop stop-color="white"></stop><stop offset="0.764999" stop-opacity="0"></stop></linearGradient><linearGradient id="paint6_linear_8_2" x1="0" y1="0.5" x2="177.846" y2="0.5" gradientUnits="userSpaceOnUse"><stop stop-color="white"></stop><stop offset="0.764999" stop-opacity="0"></stop></linearGradient><linearGradient id="paint7_linear_8_2" x1="0" y1="0.5" x2="186.564" y2="0.5" gradientUnits="userSpaceOnUse"><stop stop-color="white"></stop><stop offset="0.764999" stop-opacity="0"></stop></linearGradient><linearGradient id="paint8_linear_8_2" x1="0" y1="0.5" x2="170" y2="0.5" gradientUnits="userSpaceOnUse"><stop stop-color="white"></stop><stop offset="0.764999" stop-opacity="0"></stop></linearGradient><linearGradient id="paint9_linear_8_2" x1="0" y1="0.5" x2="142.974" y2="0.5" gradientUnits="userSpaceOnUse"><stop stop-color="white"></stop><stop offset="0.764999" stop-opacity="0"></stop></linearGradient><linearGradient id="paint10_linear_8_2" x1="0" y1="0.5" x2="120.308" y2="0.5" gradientUnits="userSpaceOnUse"><stop stop-color="white"></stop><stop offset="0.764999" stop-opacity="0"></stop></linearGradient><linearGradient id="paint11_linear_8_2" x1="0" y1="0.5" x2="112.462" y2="0.5" gradientUnits="userSpaceOnUse"><stop stop-color="white"></stop><stop offset="0.764999" stop-opacity="0"></stop></linearGradient><linearGradient id="paint12_linear_8_2" x1="0" y1="0.5" x2="82.8205" y2="0.5" gradientUnits="userSpaceOnUse"><stop stop-color="white"></stop><stop offset="0.764999" stop-opacity="0"></stop></linearGradient><linearGradient id="paint13_linear_8_2" x1="0" y1="0.5" x2="65.3846" y2="0.5" gradientUnits="userSpaceOnUse"><stop stop-color="white"></stop><stop offset="0.764999" stop-opacity="0"></stop></linearGradient></defs></svg>
